<svg id="Layer_1" data-name="Layer 1" xmlns="http://www.w3.org/2000/svg" viewBox="0 0 862.55 935.34"><defs><style>.cls-1{fill:#fff;}</style></defs><path class="cls-1" d="M0-1122.28a126.1,126.1,0,0,1,63,16.88L298.27-969.57a126.16,126.16,0,0,1,46.12,46.12,126.13,126.13,0,0,1,16.88,63v271.67a126.07,126.07,0,0,1-16.88,63,126.09,126.09,0,0,1-46.12,46.12L63-343.82A126.2,126.2,0,0,1,0-326.94a126.2,126.2,0,0,1-63-16.88L-298.27-479.66a126.09,126.09,0,0,1-46.12-46.12,126.07,126.07,0,0,1-16.88-63V-860.45a126.13,126.13,0,0,1,16.88-63,126.16,126.16,0,0,1,46.12-46.12L-63-1105.4a126.1,126.1,0,0,1,63-16.88m0-70A195.83,195.83,0,0,0-98-1166l-235.27,135.83a196,196,0,0,0-98,169.74v271.67a196,196,0,0,0,98,169.75L-98-283.2A195.83,195.83,0,0,0,0-256.94,195.83,195.83,0,0,0,98-283.2L333.27-419a196,196,0,0,0,98-169.75V-860.45a196,196,0,0,0-98-169.74L98-1166a195.83,195.83,0,0,0-98-26.26Z" transform="translate(431.27 1192.28)"/><path class="cls-1" d="M-30.3-730.12c-9.25,0-16.55,8.11-16.55,18s7.46,18,16.55,18c9.24,0,16.54-8.11,16.54-18C-13.59-722-21.06-730.12-30.3-730.12Zm59.21,0c-9.25,0-16.55,8.11-16.55,18s7.46,18,16.55,18,16.54-8.11,16.54-18S38.15-730.12,28.91-730.12Z" transform="translate(431.27 1192.28)"/><path class="cls-1" d="M107.75-866.22H-109.63a33.34,33.34,0,0,0-33.25,33.42v219.32a33.34,33.34,0,0,0,33.25,33.42h184l-8.6-30,20.76,19.3,19.63,18.17L141-541.78v-291A33.34,33.34,0,0,0,107.75-866.22ZM45.13-654.36s-5.84-7-10.71-13.14c21.25-6,29.36-19.3,29.36-19.3a92.76,92.76,0,0,1-18.65,9.57,107.26,107.26,0,0,1-23.52,7,113.69,113.69,0,0,1-42-.16,135.45,135.45,0,0,1-23.84-7,95.6,95.6,0,0,1-11.85-5.51c-.48-.32-1-.49-1.46-.81a2.21,2.21,0,0,1-.64-.49c-2.92-1.62-4.55-2.76-4.55-2.76s7.79,13,28.39,19.15c-4.86,6.16-10.87,13.46-10.87,13.46C-81.08-655.5-94.7-679-94.7-679c0-52.23,23.36-94.57,23.36-94.57,23.36-17.52,45.58-17,45.58-17l1.62,1.94c-29.2,8.44-42.66,21.25-42.66,21.25s3.57-1.94,9.57-4.7c17.36-7.62,31.14-9.73,36.82-10.22a16.34,16.34,0,0,1,2.76-.32A137,137,0,0,1,15.12-783,132.46,132.46,0,0,1,64-767.43S51.13-779.59,23.55-788l2.27-2.59s22.23-.49,45.59,17c0,0,23.36,42.34,23.36,94.57C94.77-679,81-655.5,45.13-654.36Z" transform="translate(431.27 1192.28)"/></svg>