<svg width="103" height="110" viewBox="0 0 103 110" fill="none" xmlns="http://www.w3.org/2000/svg">
<path d="M51.5 11.6908C54.5971 11.6908 57.6057 12.4879 60.2603 13.9936L82.6478 26.9243C88.0455 30.0242 91.4081 35.781 91.4081 42.0692V67.9308C91.4081 74.1304 88.0455 79.9758 82.6478 83.0757L60.1718 96.0064C57.5172 97.5121 54.5086 98.3092 51.4115 98.3092C48.3144 98.3092 45.3058 97.5121 42.6512 96.0064L20.3522 83.0757C14.9545 79.9758 11.5919 74.219 11.5919 67.9308V42.0692C11.5919 35.8696 14.9545 30.0242 20.3522 26.9243L42.7397 13.9936C45.3943 12.4879 48.4029 11.6908 51.5 11.6908ZM51.5 0C46.4562 0 41.4124 1.3285 36.988 3.89694L14.512 16.8277C5.57474 22.0531 0 31.6184 0 42.0692V67.9308C0 78.2931 5.57474 87.9469 14.512 93.1723L36.8995 106.103C41.4124 108.672 46.4562 110 51.4115 110C56.3668 110 61.4991 108.672 65.9235 106.103L88.311 93.1723C97.3368 87.9469 102.823 78.3816 102.823 67.9308V42.0692C102.823 31.7069 97.2483 22.0531 88.311 16.8277L66.012 3.89694C61.4991 1.3285 56.5438 0 51.5 0Z" fill="#353D55"/>
<path opacity="0.9" d="M51.5886 31.4412C52.031 31.4412 52.4734 31.5298 52.8274 31.7955L70.8789 42.2464C71.6753 42.6892 72.1178 43.5749 72.1178 44.4606V65.3623C72.1178 66.248 71.5868 67.1337 70.8789 67.5765L52.9159 78.0274C52.5619 78.2931 52.1195 78.3817 51.677 78.3817C51.2346 78.3817 50.7922 78.2931 50.4382 78.0274L32.2097 67.5765C31.4133 67.1337 30.9709 66.248 30.9709 65.3623V44.4606C30.9709 43.5749 31.5018 42.6892 32.2097 42.2464L50.2612 31.7955C50.7037 31.5298 51.1461 31.4412 51.5886 31.4412ZM51.5886 23.2931C49.7303 23.2931 47.8721 23.7359 46.2793 24.7102L28.2277 35.2496C24.9537 37.1981 22.9185 40.6522 22.9185 44.5491V65.4509C22.9185 69.2593 24.9537 72.802 28.2277 74.7504L46.2793 85.2013C47.9606 86.1755 49.8188 86.6184 51.5886 86.6184C53.3583 86.6184 55.3051 86.1755 56.8978 85.2013L74.9494 74.7504C78.2234 72.802 80.2587 69.3478 80.2587 65.4509V44.4606C80.2587 40.6522 78.2234 37.1095 74.9494 35.161L56.9863 24.7987C55.3051 23.8245 53.4468 23.2931 51.5886 23.2931Z" fill="#353D55"/>
<path opacity="0.8" d="M51.4114 45.7891C51.5884 45.7891 51.7654 45.8776 51.9424 45.8776L59.0214 49.9517C59.3753 50.1288 59.5523 50.4831 59.5523 50.8374V58.9855C59.5523 59.3398 59.3753 59.694 59.0214 59.8712L51.9424 63.9453C51.7654 64.0338 51.5884 64.0338 51.4114 64.0338C51.2344 64.0338 51.0575 63.9453 50.8805 63.9453L43.8015 59.8712C43.4475 59.694 43.2705 59.3398 43.2705 58.9855V50.8374C43.2705 50.4831 43.4475 50.1288 43.8015 49.9517L50.8805 45.8776C51.146 45.8776 51.2344 45.7891 51.4114 45.7891ZM51.4114 42.6006C50.7035 42.6006 49.9956 42.7778 49.2877 43.1321L42.2087 47.2061C40.8814 47.9147 40.085 49.3317 40.085 50.8374V58.9855C40.085 60.4911 40.8814 61.8197 42.2087 62.6168L49.2877 66.6908C49.9071 67.0451 50.615 67.2222 51.4114 67.2222C52.2078 67.2222 52.8272 67.0451 53.5351 66.6908L60.6142 62.6168C61.9415 61.9082 62.7379 60.4911 62.7379 58.9855V50.8374C62.7379 49.3317 61.9415 48.0032 60.6142 47.2061L53.5351 43.1321C52.9157 42.7778 52.2078 42.6006 51.4114 42.6006Z" fill="#353D55"/>
</svg>
