<svg width="33" height="29" viewBox="0 0 33 29" fill="none" xmlns="http://www.w3.org/2000/svg">
<path d="M29.5453 2.0917C25.8199 -1.05343 20.0643 -0.581012 16.5 3.06242C12.9357 -0.581012 7.18008 -1.0599 3.45469 2.0917C-1.39218 6.18813 -0.683195 12.8667 2.77149 16.4066L14.0766 27.971C14.7211 28.6311 15.5848 29 16.5 29C17.4217 29 18.2789 28.6376 18.9234 27.9775L30.2285 16.413C33.6767 12.8731 34.3986 6.1946 29.5453 2.0917ZM28.0242 14.2257L16.7191 25.7902C16.5644 25.9455 16.4355 25.9455 16.2809 25.7902L4.97579 14.2257C2.62325 11.8183 2.1463 7.26239 5.44629 4.47319C7.95352 2.35703 11.8207 2.67413 14.2441 5.1527L16.5 7.463L18.7559 5.1527C21.1922 2.66119 25.0594 2.35703 27.5537 4.46672C30.8473 7.25592 30.3574 11.8377 28.0242 14.2257Z" fill="white"/>
</svg>
