<svg width="78" height="84" viewBox="0 0 78 84" fill="none" xmlns="http://www.w3.org/2000/svg">
<path fill-rule="evenodd" clip-rule="evenodd" d="M64.3532 17.7907L47.2899 7.93926C42.1604 4.97772 35.8405 4.97772 30.711 7.93927L13.6477 17.7907C8.51817 20.7523 5.35824 26.2254 5.35824 32.1485V51.8515C5.35824 57.7746 8.51817 63.2477 13.6477 66.2093L30.711 76.0607C35.8405 79.0223 42.1604 79.0223 47.2899 76.0607L64.3532 66.2093C69.4827 63.2477 72.6426 57.7746 72.6426 51.8515V32.1485C72.6426 26.2254 69.4827 20.7523 64.3532 17.7907ZM49.9544 3.32426C43.1761 -0.589207 34.8248 -0.589207 28.0465 3.32426L10.9832 13.1757C4.20492 17.0892 0.0292969 24.3216 0.0292969 32.1485V51.8515C0.0292969 59.6784 4.20492 66.9108 10.9832 70.8243L28.0465 80.6757C34.8248 84.5892 43.1761 84.5892 49.9544 80.6757L67.0176 70.8243C73.796 66.9108 77.9716 59.6784 77.9716 51.8515V32.1485C77.9716 24.3216 73.796 17.0892 67.0176 13.1757L49.9544 3.32426ZM36.04 29.2699C36.04 27.7984 37.233 26.6055 38.7045 26.6055C40.1761 26.6055 41.369 27.7984 41.369 29.2699V45.2568C41.369 46.7283 40.1761 47.9213 38.7045 47.9213C37.233 47.9213 36.04 46.7283 36.04 45.2568V29.2699ZM38.4085 52.0659C37.1004 52.0659 36.04 53.1263 36.04 54.4343C36.04 55.7424 37.1004 56.8028 38.4085 56.8028H39.0006C40.3086 56.8028 41.369 55.7424 41.369 54.4343C41.369 53.1263 40.3086 52.0659 39.0006 52.0659H38.4085Z" fill="white"/>
</svg>
