<svg width="596" height="206" viewBox="0 0 596 206" fill="none" xmlns="http://www.w3.org/2000/svg">
    <path d="M101.657 151.267H80.6762C73.9159 151.267 68.9555 157.62 70.5951 164.179V164.179C71.7516 168.805 75.9079 172.05 80.6762 172.05H90.4279C95.1962 172.05 99.3526 175.295 100.509 179.921V179.921C102.149 186.479 97.1883 192.833 90.428 192.833H70.4826" stroke="#353D51" stroke-width="10.3914" stroke-linecap="round"/>
    <path d="M131.786 172.05H157.135C157.483 172.05 157.765 171.768 157.765 171.42V171.42C157.765 160.29 148.742 151.267 137.612 151.267H136.982C125.504 151.267 116.199 160.572 116.199 172.05V172.05C116.199 183.528 125.504 192.833 136.982 192.833H147.373" stroke="#353D51" stroke-width="10.3914" stroke-linecap="round" stroke-linejoin="round"/>
    <circle cx="34.1128" cy="172.049" r="20.7827" stroke="#353D51" stroke-width="10.3914"/>
    <circle cx="34.1119" cy="172.049" r="7.79353" fill="#353D51"/>
    <path d="M174.396 130.484V192.832" stroke="#353D51" stroke-width="10.3914" stroke-linecap="round"/>
    <path d="M203.484 192.832V187.637C203.484 179.028 196.505 172.05 187.897 172.05M187.897 172.05H186.857M187.897 172.05C196.505 172.05 203.484 165.071 203.484 156.463V151.267" stroke="#353D51" stroke-width="10.3914" stroke-linecap="round"/>
    <path d="M282.471 151.267V192.832" stroke="#353D51" stroke-width="10.3914" stroke-linecap="round"/>
    <path d="M261.687 192.832V172.05C261.687 160.572 252.382 151.267 240.904 151.267V151.267C229.426 151.267 220.121 160.572 220.121 172.05V172.05C220.121 183.528 229.426 192.832 240.904 192.832H246.1" stroke="#353D51" stroke-width="10.3914" stroke-linecap="round"/>
    <circle cx="282.471" cy="133.082" r="7.79353" fill="#353D51"/>
    <path d="M252.657 101.56C264.25 101.56 273.647 92.1637 273.647 80.5733C273.647 68.9829 264.25 59.587 252.657 59.587C241.065 59.587 231.668 68.9829 231.668 80.5733C231.668 92.1637 241.065 101.56 252.657 101.56Z" fill="#F6403F"/>
    <path d="M252.657 53.8353C262.97 53.8154 272.41 59.7679 276.834 69.0822C277.144 69.7231 277.796 70.1309 278.507 70.1309C279.447 70.1309 280.246 69.4194 280.355 68.4872C281.747 55.1034 277.013 41.7827 267.485 32.2787C265.572 30.3946 263.498 28.6814 261.286 27.1592C259.331 30.3797 255.764 32.2849 252 32.1176C247.231 31.8598 243.216 28.3641 242.305 23.676C242.043 22.3496 242.043 20.986 242.305 19.6597C231.485 18.0705 220.45 20.5113 211.31 26.5146C210.011 27.4443 209.238 28.948 209.238 30.5458C209.238 31.8783 209.775 33.1564 210.727 34.0885L232.61 56.0045C234.499 57.9333 237.455 58.3895 239.838 57.1202C243.766 54.9633 248.176 53.834 252.657 53.8353Z" fill="#F6403F"/>
    <path d="M225.915 80.6848C225.935 90.9561 231.883 100.342 241.164 104.745C241.805 105.055 242.213 105.707 242.213 106.419C242.213 107.358 241.502 108.157 240.569 108.266C227.197 109.702 213.869 105.003 204.355 95.498C202.466 93.589 200.753 91.5139 199.234 89.3C202.457 87.3477 204.363 83.7789 204.194 80.0155C203.936 75.2467 200.439 71.2329 195.75 70.3218C194.425 70.0541 193.059 70.0541 191.733 70.3218C190.144 59.5039 192.585 48.4703 198.59 39.332C199.519 38.0329 201.023 37.2607 202.621 37.2607C203.954 37.2607 205.232 37.7974 206.165 38.7494L228.085 60.6282C230.012 62.5236 230.469 65.48 229.2 67.8674C227.043 71.7945 225.914 76.2037 225.915 80.6848Z" fill="#F6403F"/>
    <g clip-path="url(#clip0_4727_7961)">
    <path d="M60.2901 23.2984C63.0881 23.312 65.8025 24.0544 68.1941 25.4434L88.3618 37.3712C93.2244 40.2307 96.2366 45.5121 96.2087 51.2649L96.094 74.9242C96.0664 80.596 93.0028 85.9289 88.1126 88.7411L67.7502 100.472C65.3453 101.838 62.6238 102.554 59.8259 102.541C57.0279 102.527 54.3135 101.785 51.9219 100.396L31.8342 88.4682C26.9716 85.6086 23.9593 80.3273 23.9872 74.5745L24.102 50.9152C24.1295 45.2434 27.1932 39.9105 32.0833 37.0983L52.3658 25.3667C54.7707 24.0009 57.4922 23.2848 60.2901 23.2984ZM60.342 12.6031C55.7854 12.581 51.2229 13.7743 47.2144 16.1046L26.852 27.8358C18.7548 32.5771 13.6761 41.3034 13.6297 50.8644L13.515 74.5237C13.469 84.0036 18.4625 92.8598 26.5133 97.6794L46.681 109.607C50.7466 111.977 55.2973 113.214 59.774 113.236C64.2507 113.258 68.8932 112.065 72.9016 109.734L93.184 98.0028C101.361 93.2619 106.36 84.5352 106.406 74.9742L106.521 51.3149C106.567 41.835 101.574 32.9788 93.5228 28.1592L73.435 16.2318C69.3694 13.8623 64.8986 12.6252 60.342 12.6031Z" fill="#353D51"/>
    <g opacity="0.9">
    <path opacity="0.9" d="M60.2827 41.3673C60.6824 41.3692 61.0817 41.4522 61.4003 41.6968L77.6618 51.3369C78.3793 51.7455 78.7751 52.5577 78.7712 53.3679L78.6785 72.4899C78.6745 73.3001 78.1909 74.108 77.5495 74.5101L61.2751 83.9923C60.9541 84.2338 60.554 84.3129 60.1543 84.311C59.7546 84.309 59.3553 84.2261 59.0367 83.9815L42.6153 74.3406C41.8978 73.932 41.502 73.1198 41.5059 72.3096L41.5987 53.1876C41.6026 52.3774 42.0862 51.5695 42.7277 51.1674L59.082 41.6856C59.4829 41.4444 59.883 41.3653 60.2827 41.3673ZM60.3188 33.913C58.6401 33.9048 56.9593 34.3018 55.5161 35.1861L39.1614 44.749C36.1949 46.5172 34.3409 49.6683 34.3237 53.2334L34.2309 72.3553C34.214 75.8394 36.0369 79.0893 38.9861 80.8862L55.2477 90.5263C56.7622 91.4249 58.439 91.8382 60.0378 91.8459C61.6367 91.8537 63.3973 91.4571 64.8406 90.5728L81.1949 81.0909C84.1614 79.3227 86.0153 76.1717 86.0326 72.6066L86.1258 53.4036C86.1427 49.9195 84.3197 46.6696 81.3706 44.8727L65.1885 35.3141C63.674 34.4154 61.9976 33.9211 60.3188 33.913Z" fill="#353D51"/>
    </g>
    <g opacity="0.8">
    <path opacity="0.8" d="M60.0601 54.4934C60.22 54.4942 60.3795 54.576 60.5393 54.5767L66.9165 58.3349C67.2355 58.4985 67.3938 58.8234 67.3923 59.1475L67.3561 66.6018C67.3545 66.9259 67.1931 67.2492 66.8725 67.4097L60.4592 71.1059C60.2989 71.1861 60.139 71.1853 59.9791 71.1846C59.8193 71.1838 59.6598 71.102 59.4999 71.1012L53.1227 67.343C52.8037 67.1794 52.6454 66.8546 52.647 66.5305L52.6831 59.0762C52.6847 58.7521 52.8461 58.4287 53.1667 58.2682L59.5801 54.5721C59.8199 54.5733 59.9002 54.4926 60.0601 54.4934ZM60.0742 51.5765C59.4347 51.5734 58.7944 51.7323 58.1533 52.0533L51.7399 55.7495C50.5377 56.3919 49.8119 57.6848 49.8052 59.0622L49.7691 66.5165C49.7624 67.8939 50.476 69.1128 51.6716 69.8478L58.0488 73.606C58.6068 73.9328 59.2455 74.098 59.965 74.1015C60.6845 74.105 61.2448 73.9456 61.8859 73.6246L68.2993 69.9285C69.5015 69.2861 70.2273 67.9932 70.234 66.6158L70.2701 59.1615C70.2768 57.784 69.5632 56.5652 68.3677 55.8301L61.9905 52.0719C61.4324 51.7451 60.7937 51.58 60.0742 51.5765Z" fill="#353D51"/>
    </g>
    </g>
    <path d="M132.047 79.8112L165.292 46.8868M154.975 69.8151L165.131 79.9717M148.669 63.349L132.207 46.7263" stroke="url(#paint0_linear_4727_7961)" stroke-width="5.51421" stroke-linecap="round" stroke-linejoin="round"/>
    <path d="M556.694 172.116H582.043C582.391 172.116 582.673 171.834 582.673 171.486V171.486C582.673 160.356 573.65 151.333 562.52 151.333H561.89C550.412 151.333 541.107 160.638 541.107 172.116V172.116C541.107 183.594 550.412 192.898 561.89 192.898H572.282" stroke="#F53D3D" stroke-width="10.3914" stroke-linecap="round" stroke-linejoin="round"/>
    <path opacity="0.75" d="M355.536 192.589V171.806C355.536 160.328 346.231 151.024 334.753 151.024V151.024C323.275 151.024 313.971 160.328 313.971 171.806V171.806C313.971 183.284 323.275 192.589 334.753 192.589H345.219" stroke="#353D51" stroke-width="5.97073" stroke-linecap="round" stroke-linejoin="round"/>
    <path d="M469.172 156.529V156.529C465.845 153.202 461.333 151.333 456.628 151.333H455.681C444.203 151.333 434.898 160.638 434.898 172.116V172.116C434.898 183.594 444.203 192.898 455.681 192.898H456.628C461.333 192.898 465.845 191.03 469.172 187.703V187.703" stroke="#F53D3D" stroke-width="10.3914" stroke-linecap="round" stroke-linejoin="round"/>
    <path d="M504.021 151.333C515.499 151.333 524.804 160.638 524.804 172.116C524.804 183.594 515.499 192.898 504.021 192.898C492.543 192.898 483.238 183.594 483.238 172.116C483.238 160.638 492.543 151.333 504.021 151.333Z" stroke="#F53D3D" stroke-width="10.3914" stroke-linecap="round" stroke-linejoin="round"/>
    <path opacity="0.75" d="M373.334 130.24V161.415C373.334 178.632 387.291 192.589 404.508 192.589V192.589H409.704M388.921 151.023H404.508" stroke="#353D51" stroke-width="5.97073" stroke-linecap="round" stroke-linejoin="round"/>
    <defs>
    <linearGradient id="paint0_linear_4727_7961" x1="129.816" y1="45.1179" x2="166.003" y2="82.3388" gradientUnits="userSpaceOnUse">
    <stop stop-color="#353D51"/>
    <stop offset="1" stop-color="#F43447"/>
    </linearGradient>
    <clipPath id="clip0_4727_7961">
    <rect width="93.0523" height="100.634" fill="white" transform="translate(13.8184 12.3772) rotate(0.27789)"/>
    </clipPath>
    </defs>
    </svg>