<svg width="610" height="196" viewBox="0 0 610 196" fill="none" xmlns="http://www.w3.org/2000/svg">
<path d="M98.7733 145.881H76.7368C69.6361 145.881 64.4261 152.554 66.1482 159.442V159.442C67.3629 164.301 71.7285 167.71 76.7368 167.71H86.9794C91.9876 167.71 96.3532 171.118 97.5679 175.977V175.977C99.2901 182.866 94.08 189.539 86.9794 189.539H66.03" stroke="#353D51" stroke-width="10.9144" stroke-linecap="round"/>
<path d="M130.419 167.71H157.043C157.408 167.71 157.705 167.414 157.705 167.048V167.048C157.705 155.358 148.228 145.881 136.537 145.881H135.876C123.82 145.881 114.047 155.654 114.047 167.71V167.71C114.047 179.765 123.82 189.539 135.876 189.539H146.79" stroke="#353D51" stroke-width="10.9144" stroke-linecap="round" stroke-linejoin="round"/>
<circle cx="27.8288" cy="167.71" r="21.8288" stroke="#353D51" stroke-width="10.9144"/>
<circle cx="27.8284" cy="167.71" r="8.18582" fill="#353D51"/>
<path d="M175.174 124.052V189.538" stroke="#353D51" stroke-width="10.9144" stroke-linecap="round"/>
<path d="M205.727 189.539V184.081C205.727 175.04 198.397 167.71 189.355 167.71M189.355 167.71H188.264M189.355 167.71C198.397 167.71 205.727 160.38 205.727 151.338V145.881" stroke="#353D51" stroke-width="10.9144" stroke-linecap="round"/>
<path d="M288.689 145.881V189.539" stroke="#353D51" stroke-width="10.9144" stroke-linecap="round"/>
<path d="M266.859 189.539V167.71C266.859 155.654 257.086 145.881 245.03 145.881V145.881C232.974 145.881 223.201 155.654 223.201 167.71V167.71C223.201 179.765 232.974 189.539 245.03 189.539H250.487" stroke="#353D51" stroke-width="10.9144" stroke-linecap="round"/>
<circle cx="288.69" cy="126.781" r="8.18582" fill="#353D51"/>
<path fill-rule="evenodd" clip-rule="evenodd" d="M239.412 7.00018C238.177 7.07356 234.477 7.49187 234.341 7.57342C234.307 7.59426 233.939 7.66335 233.525 7.727C232.563 7.87454 229.361 8.63268 228.577 8.89867C228.247 9.01041 227.585 9.22255 227.106 9.37004C226.627 9.51753 225.915 9.76351 225.526 9.91666C225.136 10.0699 224.547 10.2966 224.218 10.4204C223.369 10.7392 220.622 12.0176 220.269 12.258C220.107 12.3688 219.82 12.5123 219.632 12.577C218.695 12.8986 214.279 15.7022 213.513 16.4616C213.294 16.678 212.949 17.1901 212.745 17.5995C212.398 18.2946 212.374 18.4157 212.369 19.4347C212.36 21.167 212.405 21.2348 216.029 24.953C225.957 35.14 236.453 45.6816 237.109 46.1253C238.025 46.7449 238.614 46.9966 239.71 47.2379C240.474 47.406 240.718 47.4158 241.475 47.309C242.22 47.2041 242.665 47.0376 244.381 46.2201C249.428 43.8166 253.166 42.9858 258.169 43.1553C261.26 43.26 263.741 43.7131 266.646 44.7031C272.487 46.6936 277.114 50.3044 280.85 55.7861C281.691 57.0211 282.33 57.5238 283.236 57.6643C284.291 57.8277 285.524 57.1586 286.014 56.1566C286.541 55.0805 286.592 49.7458 286.111 45.9196C285.714 42.764 284.999 39.619 284.026 36.7414C281.324 28.7552 276.791 22.2324 270.165 16.793C268.646 15.5456 267.495 14.7506 267.206 14.7492C267.021 14.7483 266.833 14.942 266.444 15.5348C266.159 15.9676 265.506 16.7419 264.991 17.2556C263.517 18.7285 262.031 19.5832 260.021 20.1161C259.077 20.3662 258.714 20.405 257.3 20.406C255.948 20.4068 255.503 20.3645 254.711 20.1591C251.449 19.3139 248.89 17.2336 247.486 14.2875C246.598 12.4228 246.464 11.7787 246.464 9.3826C246.465 7.57593 246.443 7.31604 246.282 7.22501C245.839 6.97386 241.979 6.84746 239.412 7.00018ZM204.473 26.0914C203.191 26.5457 202.563 27.1748 201.104 29.464C198.165 34.0733 196.783 36.9533 195.246 41.6734C193.998 45.5054 193.34 49.1606 193.092 53.6392C192.952 56.1761 193.055 59.4831 193.282 59.7127C193.356 59.7867 194.112 59.8371 195.333 59.8491C197.014 59.8657 197.387 59.9024 198.19 60.1299C203.329 61.5869 206.544 66.0662 206.264 71.3811C206.146 73.626 205.346 75.7336 203.928 77.5355C203.13 78.5493 202.498 79.1212 201.331 79.8859C200.719 80.2871 200.485 80.5039 200.484 80.6706C200.483 80.9399 201.283 82.0945 202.797 84.008C204.225 85.8116 207.32 88.9302 209.124 90.381C216.07 95.969 224.211 99.2871 233.139 100.169C234.738 100.327 239.673 100.355 240.906 100.213C241.968 100.09 242.491 99.7594 242.981 98.9011C243.272 98.3908 243.322 98.1931 243.325 97.5418C243.328 96.9068 243.279 96.6947 243.033 96.2698C242.706 95.7083 242.703 95.7052 240.823 94.3412C237.063 91.6126 234.291 88.365 232.162 84.1951C230.742 81.4149 229.734 78.2577 229.275 75.1543C228.978 73.1531 229.025 68.8017 229.363 66.8938C229.938 63.6536 230.634 61.5649 232.209 58.3473C233.102 56.5239 233.264 56.1056 233.379 55.3411C233.601 53.8534 233.262 52.4038 232.375 51.0526C231.913 50.3498 208.728 26.935 208.129 26.5672C207.031 25.8926 205.569 25.7025 204.473 26.0914ZM255.417 49.705C255.237 49.7296 254.698 49.8006 254.219 49.863C253.74 49.9253 252.784 50.1182 252.095 50.2916C248.055 51.3079 244.71 53.2347 241.782 56.232C237.742 60.3666 235.592 65.5848 235.564 71.3197C235.533 77.821 238.348 83.8756 243.371 88.1084C249.947 93.6503 259.308 94.747 267.066 90.8846C268.673 90.0846 270.742 88.6458 272.088 87.3926C278.29 81.6181 280.608 72.7773 278.024 64.7495C275.997 58.4518 271.159 53.367 264.985 51.0458C262.426 50.0835 260.757 49.7673 257.919 49.7066C256.722 49.6811 255.596 49.6803 255.417 49.705Z" fill="#F53D3D"/>
<g clip-path="url(#clip0_4722_6906)">
<path d="M55.3267 11.4707C58.2655 11.4849 61.1165 12.2647 63.6285 13.7237L84.8113 26.2518C89.9187 29.2553 93.0825 34.8025 93.0532 40.8449L92.9327 65.6951C92.9038 71.6524 89.6859 77.2537 84.5496 80.2075L63.1623 92.5292C60.6363 93.9637 57.7778 94.7158 54.839 94.7016C51.9003 94.6873 49.0492 93.9075 46.5373 92.4486L25.4384 79.9208C20.331 76.9173 17.1672 71.3701 17.1965 65.3278L17.317 40.4775C17.3459 34.5203 20.5638 28.9189 25.7001 25.9651L47.0034 13.6431C49.5294 12.2085 52.3879 11.4564 55.3267 11.4707ZM55.3812 0.237014C50.5952 0.213801 45.803 1.46714 41.5928 3.91478L20.2055 16.2365C11.7007 21.2164 6.36632 30.382 6.31761 40.4242L6.19708 65.2744C6.14879 75.2315 11.3936 84.5335 19.8497 89.5957L41.0325 102.124C45.3027 104.613 50.0825 105.912 54.7846 105.935C59.4866 105.958 64.3627 104.705 68.5729 102.257L89.8763 89.9354C98.4651 84.9558 103.715 75.7899 103.764 65.7476L103.885 40.8974C103.933 30.9403 98.6882 21.6383 90.2321 16.5761L69.1332 4.04836C64.863 1.55959 60.1672 0.260227 55.3812 0.237014Z" fill="#353D51"/>
<g opacity="0.9">
<path opacity="0.9" d="M55.3209 30.4493C55.7407 30.4513 56.1602 30.5384 56.4948 30.7954L73.5749 40.9207C74.3285 41.3499 74.7442 42.2029 74.7401 43.054L74.6427 63.1384C74.6385 63.9894 74.1306 64.838 73.4568 65.2603L56.3633 75.2198C56.0262 75.4735 55.6059 75.5566 55.1861 75.5546C54.7663 75.5525 54.3469 75.4654 54.0123 75.2084L36.7642 65.0823C36.0106 64.6532 35.5949 63.8001 35.599 62.949L35.6964 42.8646C35.7006 42.0136 36.2085 41.165 36.8823 40.7427L54.0598 30.7836C54.4809 30.5303 54.9011 30.4472 55.3209 30.4493ZM55.3589 22.6197C53.5956 22.6112 51.8303 23.0282 50.3144 23.957L33.1365 34.0012C30.0207 35.8584 28.0734 39.1681 28.0552 42.9126L27.9578 62.9971C27.9401 66.6565 29.8548 70.0701 32.9524 71.9574L50.0325 82.0827C51.6233 83.0266 53.3845 83.4606 55.0638 83.4688C56.7431 83.4769 58.5924 83.0604 60.1083 82.1316L77.2858 72.1724C80.4016 70.3152 82.3488 67.0055 82.367 63.261L82.4648 43.0914C82.4826 39.432 80.5679 36.0185 77.4703 34.1311L60.4737 24.0913C58.8829 23.1475 57.1222 22.6283 55.3589 22.6197Z" fill="#353D51"/>
</g>
<g opacity="0.8">
<path opacity="0.8" d="M55.0842 44.2365C55.2521 44.2373 55.4196 44.3232 55.5876 44.324L62.2858 48.2714C62.6208 48.4432 62.7871 48.7844 62.7854 49.1248L62.7475 56.9544C62.7458 57.2948 62.5762 57.6344 62.2395 57.803L55.5034 61.6851C55.335 61.7694 55.1671 61.7686 54.9992 61.7678C54.8312 61.767 54.6637 61.6811 54.4958 61.6802L47.7976 57.7329C47.4626 57.5611 47.2963 57.2198 47.2979 56.8794L47.3359 49.0499C47.3376 48.7095 47.5071 48.3699 47.8438 48.2013L54.58 44.3191C54.8319 44.3203 54.9163 44.2356 55.0842 44.2365ZM55.0991 41.1727C54.4273 41.1695 53.7548 41.3364 53.0814 41.6736L46.3453 45.5558C45.0825 46.2305 44.3202 47.5885 44.3132 49.0352L44.2752 56.8648C44.2682 58.3115 45.0177 59.5917 46.2734 60.3638L52.9716 64.3111C53.5577 64.6544 54.2286 64.8279 54.9843 64.8315C55.74 64.8352 56.3286 64.6678 57.0019 64.3307L63.7381 60.4485C65.0009 59.7738 65.7632 58.4158 65.7702 56.969L65.8082 49.1395C65.8152 47.6927 65.0657 46.4125 63.8099 45.6405L57.1117 41.6931C56.5256 41.3499 55.8547 41.1764 55.0991 41.1727Z" fill="#353D51"/>
</g>
</g>
<path d="M130.695 70.8284L165.614 36.2467M154.777 60.3291L165.445 70.9969M148.154 53.5375L130.863 36.0781" stroke="url(#paint0_linear_4722_6906)" stroke-width="5.79177" stroke-linecap="round" stroke-linejoin="round"/>
<path d="M576.715 167.779H603.34C603.705 167.779 604.001 167.483 604.001 167.118V167.118C604.001 155.427 594.524 145.95 582.834 145.95H582.173C570.117 145.95 560.344 155.723 560.344 167.779V167.779C560.344 179.835 570.117 189.608 582.173 189.608H593.087" stroke="#F53D3D" stroke-width="10.9144" stroke-linecap="round" stroke-linejoin="round"/>
<path opacity="0.75" d="M365.431 189.283V167.454C365.431 155.398 355.658 145.625 343.602 145.625V145.625C331.547 145.625 321.773 155.398 321.773 167.454V167.454C321.773 179.51 331.547 189.283 343.602 189.283H354.595" stroke="#353D51" stroke-width="6.27127" stroke-linecap="round" stroke-linejoin="round"/>
<path d="M484.788 151.407V151.407C481.294 147.913 476.554 145.95 471.613 145.95H470.618C458.562 145.95 448.789 155.723 448.789 167.779V167.779C448.789 179.835 458.562 189.608 470.618 189.608H471.613C476.554 189.608 481.294 187.645 484.788 184.151V184.151" stroke="#F53D3D" stroke-width="10.9144" stroke-linecap="round" stroke-linejoin="round"/>
<path d="M521.389 145.95C533.445 145.95 543.218 155.723 543.218 167.779C543.218 179.835 533.445 189.608 521.389 189.608C509.334 189.608 499.561 179.835 499.561 167.779C499.561 155.723 509.334 145.95 521.389 145.95Z" stroke="#F53D3D" stroke-width="10.9144" stroke-linecap="round" stroke-linejoin="round"/>
<path opacity="0.75" d="M384.125 123.796V156.539C384.125 174.623 398.785 189.282 416.868 189.282V189.282H422.325M400.497 145.625H416.868" stroke="#353D51" stroke-width="6.27127" stroke-linecap="round" stroke-linejoin="round"/>
<defs>
<linearGradient id="paint0_linear_4722_6906" x1="128.352" y1="34.3887" x2="166.361" y2="73.4832" gradientUnits="userSpaceOnUse">
<stop stop-color="#353D51"/>
<stop offset="1" stop-color="#F43447"/>
</linearGradient>
<clipPath id="clip0_4722_6906">
<rect width="97.7362" height="105.7" fill="white" transform="translate(6.51367) rotate(0.27789)"/>
</clipPath>
</defs>
</svg>
