<svg width="707" height="166" viewBox="0 0 707 166" fill="none" xmlns="http://www.w3.org/2000/svg">
    <g clip-path="url(#clip0_4009_8691)">
    <path d="M67 37.3043C71.0292 37.3043 74.9433 38.3478 78.3969 40.3188L107.522 57.2464C114.545 61.3044 118.919 68.8406 118.919 77.0725V110.928C118.919 119.043 114.545 126.696 107.522 130.754L78.2818 147.681C74.8282 149.652 70.9141 150.696 66.8849 150.696C62.8557 150.696 58.9416 149.652 55.488 147.681L26.4777 130.754C19.4553 126.696 15.0808 119.159 15.0808 110.928V77.0725C15.0808 68.9565 19.4553 61.3044 26.4777 57.2464L55.6031 40.3188C59.0567 38.3478 62.9708 37.3043 67 37.3043ZM67 22C60.4381 22 53.8763 23.7391 48.1203 27.1014L18.8797 44.029C7.25258 50.8696 0 63.3913 0 77.0725V110.928C0 124.493 7.25258 137.13 18.8797 143.971L48.0052 160.899C53.8763 164.261 60.4381 166 66.8849 166C73.3316 166 80.0086 164.261 85.7646 160.899L114.89 143.971C126.632 137.13 133.77 124.609 133.77 110.928V77.0725C133.77 63.5072 126.517 50.8696 114.89 44.029L85.8797 27.1014C80.0086 23.7391 73.5619 22 67 22Z" fill="#F1F5FF"/>
    <g opacity="0.9">
    <path opacity="0.9" d="M67.1154 63.1589C67.691 63.1589 68.2666 63.2748 68.7271 63.6226L92.2116 77.3038C93.2477 77.8835 93.8233 79.0429 93.8233 80.2023V107.565C93.8233 108.724 93.1326 109.884 92.2116 110.463L68.8422 124.144C68.3817 124.492 67.8061 124.608 67.2305 124.608C66.6549 124.608 66.0793 124.492 65.6188 124.144L41.904 110.463C40.868 109.884 40.2924 108.724 40.2924 107.565V80.2023C40.2924 79.0429 40.9831 77.8835 41.904 77.3038L65.3886 63.6226C65.9642 63.2748 66.5398 63.1589 67.1154 63.1589ZM67.1154 52.4922C64.6978 52.4922 62.2803 53.0719 60.2082 54.3473L36.7236 68.1444C32.4642 70.6951 29.8164 75.2168 29.8164 80.3183V107.681C29.8164 112.666 32.4642 117.304 36.7236 119.855L60.2082 133.536C62.3954 134.811 64.813 135.391 67.1154 135.391C69.4178 135.391 71.9504 134.811 74.0226 133.536L97.5071 119.855C101.767 117.304 104.414 112.782 104.414 107.681V80.2023C104.414 75.2168 101.767 70.5791 97.5071 68.0284L74.1377 54.4632C71.9504 53.1878 69.5329 52.4922 67.1154 52.4922Z" fill="#F1F5FF"/>
    </g>
    <g opacity="0.8">
    <path opacity="0.8" d="M66.8858 81.9434C67.116 81.9434 67.3463 82.0594 67.5765 82.0594L76.7861 87.3927C77.2466 87.6246 77.4769 88.0884 77.4769 88.5521V99.2188C77.4769 99.6826 77.2466 100.146 76.7861 100.378L67.5765 105.712C67.3463 105.828 67.116 105.828 66.8858 105.828C66.6555 105.828 66.4253 105.712 66.1951 105.712L56.9854 100.378C56.525 100.146 56.2947 99.6826 56.2947 99.2188V88.5521C56.2947 88.0884 56.525 87.6246 56.9854 87.3927L66.1951 82.0594C66.5404 82.0594 66.6555 81.9434 66.8858 81.9434ZM66.8858 77.7695C65.9648 77.7695 65.0439 78.0014 64.1229 78.4652L54.9133 83.7985C53.1865 84.7261 52.1504 86.5811 52.1504 88.5521V99.2188C52.1504 101.19 53.1865 102.929 54.9133 103.972L64.1229 109.306C64.9287 109.77 65.8497 110.001 66.8858 110.001C67.9219 110.001 68.7277 109.77 69.6487 109.306L78.8583 103.972C80.5851 103.045 81.6212 101.19 81.6212 99.2188V88.5521C81.6212 86.5811 80.5851 84.842 78.8583 83.7985L69.6487 78.4652C68.8428 78.0014 67.9219 77.7695 66.8858 77.7695Z" fill="#F1F5FF"/>
    </g>
    </g>
    <path d="M691.882 28.2C699.681 28.2 706 21.8901 706 14.1027C706 10.9877 704.99 8.11277 703.281 5.78188C700.712 2.27755 696.562 0 691.882 0C684.084 0 677.759 6.31526 677.759 14.1027C677.759 21.8901 684.084 28.2 691.882 28.2Z" fill="#F1F5FF"/>
    <path d="M414.492 47.0018C388.5 47.0018 367.427 68.0438 367.427 93.9982C367.427 119.958 388.5 141 414.492 141H433.32C435.409 141 437.337 140.323 438.897 139.176C439.282 138.893 439.639 138.584 439.976 138.248C440.601 137.629 441.135 136.92 441.568 136.141C442.31 134.797 442.738 133.25 442.738 131.602C442.738 126.412 438.518 122.204 433.32 122.204H414.492C398.894 122.204 386.251 109.573 386.251 93.9982C386.251 78.4234 398.894 65.7982 414.492 65.7982H415.635C427.717 65.7982 437.952 73.6976 441.45 84.6H405.08C399.882 84.6 395.668 88.8084 395.668 93.9982C395.668 99.1934 399.882 103.402 405.08 103.402H451.006C456.839 103.402 461.561 98.6813 461.561 92.8621C461.561 67.5317 441.002 47.0018 415.635 47.0018H414.492Z" fill="#F1F5FF"/>
    <path d="M691.882 47.0018C697.08 47.0018 701.294 51.2102 701.294 56.4V131.602C701.294 136.792 697.08 141 691.882 141C686.68 141 682.465 136.792 682.465 131.602V56.4C682.465 51.2102 686.68 47.0018 691.882 47.0018Z" fill="#F1F5FF"/>
    <path d="M475.59 93.9982C475.59 68.0438 496.662 47.0018 522.654 47.0018C548.651 47.0018 569.723 68.0438 569.723 93.9982V131.602C569.723 136.792 565.509 141 560.311 141C555.114 141 550.9 136.792 550.9 131.602V93.9982C550.9 78.4234 538.251 65.7982 522.654 65.7982C507.056 65.7982 494.413 78.4234 494.413 93.9982C494.413 109.573 507.056 122.204 522.654 122.204H532.071C537.268 122.204 541.483 126.412 541.483 131.602C541.483 136.792 537.268 141 532.071 141H522.654C496.662 141 475.59 119.958 475.59 93.9982Z" fill="#F1F5FF"/>
    <path d="M221.385 104.911C227.426 104.911 232.324 100.02 232.324 93.9875C232.324 87.955 227.426 83.0639 221.385 83.0639C215.343 83.0639 210.445 87.955 210.445 93.9875C210.445 100.02 215.343 104.911 221.385 104.911Z" fill="#F1F5FF"/>
    <path fill-rule="evenodd" clip-rule="evenodd" d="M221.064 47.0018C195.072 47.0018 174 68.0438 174 93.9982C174 119.958 195.072 141 221.064 141C247.061 141 268.134 119.958 268.134 93.9982C268.134 68.0438 247.061 47.0018 221.064 47.0018ZM192.824 93.9982C192.824 78.4234 205.467 65.7982 221.064 65.7982C236.661 65.7982 249.31 78.4234 249.31 93.9982C249.31 109.573 236.661 122.204 221.064 122.204C205.467 122.204 192.824 109.573 192.824 93.9982Z" fill="#F1F5FF"/>
    <path d="M282.15 82.0398C277.695 64.2407 291.177 47.0018 309.547 47.0018H345.916C348.224 47.0018 350.339 47.8339 351.979 49.2153C354.03 50.9382 355.333 53.5144 355.333 56.4C355.333 61.5898 351.114 65.7982 345.916 65.7982H309.547C303.425 65.7982 298.933 71.5481 300.418 77.4793C300.952 79.6075 302.186 81.4157 303.842 82.6745C305.439 83.8906 307.426 84.6 309.547 84.6H327.216C340.175 84.6 351.472 93.4062 354.613 105.962C359.073 123.761 345.591 141 327.216 141H290.847C287.984 141 285.425 139.725 283.7 137.709C282.29 136.066 281.435 133.933 281.435 131.602C281.435 126.412 285.649 122.204 290.847 122.204H327.216C333.343 122.204 337.835 116.454 336.35 110.522C335.303 106.335 331.538 103.402 327.216 103.402H309.547C296.588 103.402 285.296 94.5956 282.15 82.0398Z" fill="#F1F5FF"/>
    <path d="M600.348 9.85875C599.152 9.30936 597.817 9 596.412 9C591.214 9 587 13.2084 587 18.3982V131.198C587 136.393 591.214 140.602 596.412 140.602C601.609 140.602 605.824 136.393 605.824 131.198V18.3982C605.824 14.6112 603.58 11.3469 600.348 9.85875Z" fill="#F1F5FF"/>
    <path d="M658.528 55.9964C658.528 54.791 658.304 53.6389 657.893 52.5828C656.52 49.0785 653.107 46.5982 649.111 46.5982C643.914 46.5982 639.699 50.8066 639.699 55.9964V65.4C639.699 75.7796 631.271 84.2018 620.871 84.2018H618.99C613.793 84.2018 609.579 88.4102 609.579 93.6C609.579 98.7898 613.793 102.998 618.99 102.998H620.871C631.271 102.998 639.699 111.415 639.699 121.8V131.198C639.699 136.393 643.914 140.602 649.111 140.602C651.921 140.602 654.442 139.375 656.167 137.428C656.515 137.033 656.83 136.612 657.113 136.164C657.492 135.551 657.807 134.895 658.042 134.201C658.357 133.257 658.528 132.249 658.528 131.198V121.8C658.528 110.567 653.598 100.491 645.778 93.6C649.02 90.7411 651.766 87.3381 653.871 83.5297C656.84 78.1532 658.528 71.9713 658.528 65.4V55.9964Z" fill="#F1F5FF"/>
    <defs>
    <clipPath id="clip0_4009_8691">
    <rect width="134" height="144" fill="white" transform="translate(0 22)"/>
    </clipPath>
    </defs>
</svg>