<svg width="432" height="102" viewBox="0 0 432 102" fill="none" xmlns="http://www.w3.org/2000/svg">
<g clip-path="url(#clip0_3309_11641)">
<path d="M40.9939 23.1223C43.4592 23.1223 45.854 23.7618 47.9671 24.9699L65.7875 35.3448C70.0841 37.832 72.7607 42.4509 72.7607 47.4963V68.2462C72.7607 73.2204 70.0841 77.9105 65.7875 80.3976L47.8967 90.7726C45.7836 91.9806 43.3888 92.6202 40.9235 92.6202C38.4582 92.6202 36.0634 91.9806 33.9503 90.7726L16.2004 80.3976C11.9037 77.9105 9.22716 73.2915 9.22716 68.2462V47.4963C9.22716 42.522 11.9037 37.832 16.2004 35.3448L34.0207 24.9699C36.1338 23.7618 38.5287 23.1223 40.9939 23.1223ZM40.9939 13.7422C36.9791 13.7422 32.9642 14.8081 29.4424 16.8689L11.5516 27.2438C4.43749 31.4364 0 39.1111 0 47.4963V68.2462C0 76.5603 4.43749 84.306 11.5516 88.4986L29.3719 98.8736C32.9642 100.934 36.9791 102 40.9235 102C44.8679 102 48.9532 100.934 52.4751 98.8736L70.2954 88.4986C77.4799 84.306 81.847 76.6314 81.847 68.2462V47.4963C81.847 39.1821 77.4095 31.4364 70.2954 27.2438L52.5455 16.8689C48.9532 14.8081 45.0088 13.7422 40.9939 13.7422Z" fill="#F1F5FF"/>
<g opacity="0.9">
<path opacity="0.9" d="M41.0636 38.9693C41.4157 38.9693 41.7679 39.0403 42.0497 39.2535L56.4187 47.6387C57.0526 47.9941 57.4048 48.7047 57.4048 49.4153V66.1857C57.4048 66.8963 56.9822 67.607 56.4187 67.9623L42.1201 76.3475C41.8384 76.5607 41.4862 76.6317 41.134 76.6317C40.7818 76.6317 40.4296 76.5607 40.1479 76.3475L25.638 67.9623C25.0041 67.607 24.6519 66.8963 24.6519 66.1857V49.4153C24.6519 48.7047 25.0745 47.9941 25.638 47.6387L40.007 39.2535C40.3592 39.0403 40.7114 38.9693 41.0636 38.9693ZM41.0636 32.4316C39.5844 32.4316 38.1052 32.7869 36.8374 33.5686L22.4684 42.0249C19.8622 43.5883 18.2422 46.3596 18.2422 49.4863V66.2568C18.2422 69.3124 19.8622 72.1549 22.4684 73.7182L36.8374 82.1034C38.1757 82.8851 39.6548 83.2404 41.0636 83.2404C42.4723 83.2404 44.0219 82.8851 45.2897 82.1034L59.6587 73.7182C62.2649 72.1549 63.8849 69.3835 63.8849 66.2568V49.4153C63.8849 46.3596 62.2649 43.5172 59.6587 41.9538L45.3602 33.6397C44.0219 32.858 42.5427 32.4316 41.0636 32.4316Z" fill="#F1F5FF"/>
</g>
<g opacity="0.8">
<path opacity="0.8" d="M40.9241 50.4801C41.0649 50.4801 41.2058 50.5511 41.3467 50.5511L46.9816 53.82C47.2633 53.9621 47.4042 54.2463 47.4042 54.5306V61.0682C47.4042 61.3525 47.2633 61.6367 46.9816 61.7788L41.3467 65.0476C41.2058 65.1187 41.0649 65.1187 40.9241 65.1187C40.7832 65.1187 40.6423 65.0476 40.5014 65.0476L34.8665 61.7788C34.5848 61.6367 34.4439 61.3525 34.4439 61.0682V54.5306C34.4439 54.2463 34.5848 53.9621 34.8665 53.82L40.5014 50.5511C40.7127 50.5511 40.7832 50.4801 40.9241 50.4801ZM40.9241 47.9219C40.3606 47.9219 39.7971 48.064 39.2336 48.3482L33.5987 51.6171C32.5421 52.1856 31.9082 53.3225 31.9082 54.5306V61.0682C31.9082 62.2762 32.5421 63.3422 33.5987 63.9817L39.2336 67.2505C39.7266 67.5348 40.2901 67.6769 40.9241 67.6769C41.558 67.6769 42.051 67.5348 42.6145 67.2505L48.2494 63.9817C49.306 63.4132 49.9399 62.2762 49.9399 61.0682V54.5306C49.9399 53.3225 49.306 52.2566 48.2494 51.6171L42.6145 48.3482C42.1215 48.064 41.558 47.9219 40.9241 47.9219Z" fill="#F1F5FF"/>
</g>
</g>
<path d="M423.327 17.5417C428.099 17.5417 431.965 13.6743 431.965 8.90138C431.965 6.99221 431.347 5.23015 430.301 3.80155C428.729 1.65373 426.19 0.257812 423.327 0.257812C418.556 0.257812 414.686 4.12846 414.686 8.90138C414.686 13.6743 418.556 17.5417 423.327 17.5417Z" fill="#F1F5FF"/>
<path d="M298.746 6.54434C298.014 6.20762 297.197 6.01801 296.337 6.01801C293.158 6.01801 290.579 8.59735 290.579 11.7782V80.9137C290.579 84.0978 293.158 86.6772 296.337 86.6772C299.517 86.6772 302.096 84.0978 302.096 80.9137V11.7782C302.096 9.45713 300.723 7.45643 298.746 6.54434Z" fill="#F1F5FF"/>
<path d="M334.344 34.8223C334.344 34.0835 334.206 33.3773 333.955 32.73C333.115 30.5822 331.026 29.0621 328.582 29.0621C325.402 29.0621 322.823 31.6414 322.823 34.8223V40.5858C322.823 46.9475 317.666 52.1094 311.303 52.1094H310.152C306.972 52.1094 304.394 54.6888 304.394 57.8696C304.394 61.0505 306.972 63.6298 310.152 63.6298H311.303C317.666 63.6298 322.823 68.7885 322.823 75.1535V80.9137C322.823 84.0978 325.402 86.6772 328.582 86.6772C330.301 86.6772 331.843 85.9253 332.899 84.732C333.111 84.4901 333.304 84.2319 333.477 83.9573C333.709 83.5813 333.902 83.1792 334.046 82.7542C334.239 82.1756 334.344 81.5577 334.344 80.9137V75.1535C334.344 68.2687 331.327 62.0933 326.542 57.8696C328.526 56.1174 330.206 54.0317 331.494 51.6975C333.311 48.4022 334.344 44.6133 334.344 40.5858V34.8223Z" fill="#F1F5FF"/>
<path d="M253.606 29.0654C237.703 29.0654 224.809 41.9621 224.809 57.8696C224.809 73.7805 237.703 86.6772 253.606 86.6772H265.126C266.404 86.6772 267.584 86.262 268.538 85.5591C268.773 85.3859 268.992 85.1963 269.198 84.9903C269.581 84.6111 269.907 84.1763 270.172 83.699C270.626 82.8752 270.888 81.9271 270.888 80.917C270.888 77.7361 268.306 75.1568 265.126 75.1568H253.606C244.062 75.1568 236.327 67.4155 236.327 57.8696C236.327 48.3238 244.062 40.5858 253.606 40.5858H254.305C261.698 40.5858 267.96 45.4273 270.1 52.1094H247.847C244.667 52.1094 242.088 54.6888 242.088 57.8696C242.088 61.0538 244.667 63.6331 247.847 63.6331H275.947C279.516 63.6331 282.405 60.7399 282.405 57.1733C282.405 41.6482 269.826 29.0654 254.305 29.0654H253.606Z" fill="#F1F5FF"/>
<path d="M423.327 29.0654C426.507 29.0654 429.086 31.6447 429.086 34.8256V80.917C429.086 84.0978 426.507 86.6772 423.327 86.6772C420.144 86.6772 417.565 84.0978 417.565 80.917V34.8256C417.565 31.6447 420.144 29.0654 423.327 29.0654Z" fill="#F1F5FF"/>
<path d="M344.831 57.8696C344.831 41.9621 357.724 29.0654 373.627 29.0654C389.534 29.0654 402.427 41.9621 402.427 57.8696V80.917C402.427 84.0978 399.848 86.6772 396.668 86.6772C393.488 86.6772 390.91 84.0978 390.91 80.917V57.8696C390.91 48.3238 383.171 40.5858 373.627 40.5858C364.084 40.5858 356.348 48.3238 356.348 57.8696C356.348 67.4155 364.084 75.1568 373.627 75.1568H379.389C382.569 75.1568 385.148 77.7361 385.148 80.917C385.148 84.0978 382.569 86.6772 379.389 86.6772H373.627C357.724 86.6772 344.831 73.7805 344.831 57.8696Z" fill="#F1F5FF"/>
<path d="M135.453 64.5583C139.15 64.5583 142.147 61.5605 142.147 57.8631C142.147 54.1657 139.15 51.1679 135.453 51.1679C131.757 51.1679 128.76 54.1657 128.76 57.8631C128.76 61.5605 131.757 64.5583 135.453 64.5583Z" fill="#F1F5FF"/>
<path fill-rule="evenodd" clip-rule="evenodd" d="M135.257 29.0654C119.354 29.0654 106.461 41.9621 106.461 57.8696C106.461 73.7805 119.354 86.6772 135.257 86.6772C151.164 86.6772 164.057 73.7805 164.057 57.8696C164.057 41.9621 151.164 29.0654 135.257 29.0654ZM117.978 57.8696C117.978 48.3238 125.714 40.5858 135.257 40.5858C144.8 40.5858 152.539 48.3238 152.539 57.8696C152.539 67.4155 144.8 75.1568 135.257 75.1568C125.714 75.1568 117.978 67.4155 117.978 57.8696Z" fill="#F1F5FF"/>
<path d="M172.632 50.5402C169.907 39.6312 178.156 29.0654 189.395 29.0654H211.648C213.06 29.0654 214.354 29.5753 215.357 30.422C216.612 31.478 217.41 33.057 217.41 34.8256C217.41 38.0064 214.828 40.5858 211.648 40.5858H189.395C185.65 40.5858 182.901 44.1099 183.81 47.7451C184.137 49.0495 184.891 50.1578 185.905 50.9293C186.882 51.6746 188.098 52.1094 189.395 52.1094H200.206C208.135 52.1094 215.047 57.5068 216.969 65.2023C219.698 76.1114 211.449 86.6772 200.206 86.6772H177.954C176.202 86.6772 174.636 85.8958 173.581 84.6601C172.718 83.6532 172.195 82.3456 172.195 80.917C172.195 77.7361 174.774 75.1568 177.954 75.1568H200.206C203.955 75.1568 206.704 71.6326 205.795 67.9974C205.154 65.4311 202.85 63.6331 200.206 63.6331H189.395C181.466 63.6331 174.557 58.2358 172.632 50.5402Z" fill="#F1F5FF"/>
<defs>
<clipPath id="clip0_3309_11641">
<rect width="81.9879" height="88.2581" fill="white" transform="translate(0 13.7422)"/>
</clipPath>
</defs>
</svg>
