<svg width="72" height="70" viewBox="0 0 72 70" fill="none" xmlns="http://www.w3.org/2000/svg">
<path d="M26.5576 68.4022C26.2099 69.5952 24.9578 70.2872 23.7888 69.8658C16.3838 67.1959 10.0359 62.1626 5.74689 55.5128C1.05023 48.231 -0.862404 39.4995 0.360068 30.9211C1.58254 22.3427 5.85809 14.4931 12.4019 8.81308C18.9457 3.13311 27.3186 0.00394538 35.9836 3.72466e-06C44.6487 -0.00393793 53.0244 3.11761 59.5734 8.79163C66.1223 14.4656 70.405 22.3114 71.6353 30.8887C72.8656 39.466 70.9609 48.1992 66.2709 55.4853C61.9879 62.1389 55.6446 67.178 48.242 69.8546C47.0734 70.2772 45.8206 69.5863 45.4719 68.3936L39.234 47.0602C38.8853 45.8675 39.5908 44.6397 40.6648 44.0146C41.922 43.2828 42.9988 42.26 43.7975 41.0192C45.0056 39.1424 45.4963 36.8928 45.1793 34.6834C44.8624 32.4739 43.7593 30.4529 42.0723 28.9914C40.3853 27.5298 38.2278 26.7257 35.9958 26.7267C33.7637 26.7277 31.6069 27.5338 29.9213 28.9969C28.2357 30.46 27.1344 32.482 26.8195 34.6917C26.5046 36.9014 26.9972 39.1506 28.2071 41.0263C29.0069 42.2664 30.0847 43.2882 31.3425 44.0188C32.417 44.643 33.1237 45.8701 32.7761 47.0631L26.5576 68.4022Z" fill="white"/>
</svg>
