<svg width="102" height="102" viewBox="0 0 102 102" fill="none" xmlns="http://www.w3.org/2000/svg">
<path d="M51 0C22.8306 0 0 22.8306 0 51C0 79.1694 22.8306 102 51 102C79.1694 102 102 79.1694 102 51C102 22.8306 79.1694 0 51 0ZM51 95.7932C26.2596 95.7932 6.20681 75.7404 6.20681 51C6.20681 26.2596 26.2596 6.2068 51 6.2068C75.7404 6.2068 95.7932 26.2596 95.7932 51C95.7932 75.7404 75.7404 95.7932 51 95.7932Z" fill="white"/>
<path d="M76.1745 21.4417C68.1013 14.4536 58.509 11.4153 47.6579 12.3702C27.3447 14.1498 11.7626 31.7285 12.2834 51.9115L49.9149 48.6128L76.1745 21.4417Z" fill="white"/>
<path d="M12.6741 56.8161C13.0213 59.1166 13.4988 61.1566 14.3668 63.6306C17.7524 73.44 24.7405 81.3396 34.029 85.8536C42.5796 90.0204 52.2153 90.8885 61.3302 88.371L49.3507 53.6042L12.6741 56.8161Z" fill="white"/>
<path d="M53.8213 51.6511L65.9311 86.8085C70.7055 84.8553 74.6119 82.251 78.4315 78.4315C92.8417 64.0212 93.4928 40.5396 80.1243 25.3915L53.8213 51.6511Z" fill="white"/>
</svg>
