<svg width="102" height="110" viewBox="0 0 102 110" fill="none" xmlns="http://www.w3.org/2000/svg">
<path d="M89.977 18.737L63.023 3.21113C55.6008 -1.07038 46.3991 -1.07038 38.977 3.21113L12.023 18.737C4.60085 23.0185 0 30.9328 0 39.4958V70.5042C0 79.0672 4.60085 86.9815 12.023 91.263L38.977 106.789C46.3991 111.07 55.6008 111.07 63.023 106.789L89.977 91.263C97.3991 86.9815 102 79.0672 102 70.5042V39.4958C102 30.9328 97.3991 23.0185 89.977 18.737ZM95.7498 68.6013C95.7498 76.1264 91.7132 83.046 85.2026 86.8085L61.5472 100.432C55.0366 104.194 46.9634 104.194 40.4528 100.432L16.7974 86.8085C10.2868 83.046 6.25021 76.1264 6.25021 68.6013V41.3987C6.25021 33.8736 10.2868 26.954 16.7974 23.1915L40.4528 9.56851C46.9634 5.80598 55.0366 5.80598 61.5472 9.56851L85.2026 23.1915C91.7132 26.954 95.7498 33.8736 95.7498 41.3987V68.6013Z" fill="white"/>
<path d="M80.6017 27.4729L60.1149 15.7096C54.4723 12.4661 47.4842 12.4661 41.8417 15.7096L21.3549 27.4729C15.7123 30.7165 12.24 36.7279 12.24 43.215V66.7849C12.24 73.272 15.7123 79.2835 21.3549 82.527L41.8417 94.2903C47.4842 97.5339 54.4723 97.5339 60.1149 94.2903L80.6017 82.527C86.2442 79.2835 89.7166 73.272 89.7166 66.7849V43.215C89.76 36.7279 86.2442 30.7165 80.6017 27.4729ZM66.7557 74.5695H35.1574C33.2911 74.5695 31.9021 72.8828 32.2494 71.0232C33.8987 62.244 41.6681 55.5838 50.9566 55.5838C45.3574 55.5838 40.8 51.0428 40.8 45.4639C40.8 39.885 45.3574 35.344 50.9566 35.344C56.5557 35.344 61.1132 39.885 61.1132 45.4639C61.1132 51.0428 56.5557 55.5838 50.9566 55.5838C60.2885 55.5838 68.0145 62.244 69.6638 71.0232C70.0545 72.8828 68.6655 74.5695 66.7557 74.5695Z" fill="white"/>
</svg>
