<svg width="102" height="110" viewBox="0 0 102 110" fill="none" xmlns="http://www.w3.org/2000/svg">
<path d="M89.977 18.7369L63.023 3.21113C55.6008 -1.07038 46.3991 -1.07038 38.977 3.21113L12.023 18.7369C4.60085 23.0184 0 30.9327 0 39.4957V70.5042C0 79.0672 4.60085 86.9815 12.023 91.263L38.977 106.789C46.3991 111.07 55.6008 111.07 63.023 106.789L89.977 91.263C97.3991 86.9815 102 79.0672 102 70.5042V39.4957C102 30.9327 97.3991 23.0184 89.977 18.7369ZM95.7498 68.6013C95.7498 76.1264 91.7132 83.046 85.2026 86.8085L61.5472 100.431C55.0366 104.194 46.9634 104.194 40.4528 100.431L16.7974 86.8085C10.2868 83.046 6.25021 76.1264 6.25021 68.6013V41.3986C6.25021 33.8736 10.2868 26.954 16.7974 23.1914L40.4528 9.56849C46.9634 5.80595 55.0366 5.80595 61.5472 9.56849L85.2026 23.1914C91.7132 26.954 95.7498 33.8736 95.7498 41.3986V68.6013Z" fill="#FF6666"/>
<path d="M80.6017 27.473L60.1149 15.7096C54.4723 12.4661 47.4842 12.4661 41.8417 15.7096L21.3549 27.473C15.7123 30.7165 12.24 36.728 12.24 43.2151V66.785C12.24 73.2721 15.7123 79.2834 21.3549 82.527L41.8417 94.2904C47.4842 97.5339 54.4723 97.5339 60.1149 94.2904L80.6017 82.527C86.2442 79.2834 89.7166 73.2721 89.7166 66.785V43.2151C89.76 36.728 86.2442 30.7165 80.6017 27.473ZM42.2323 73.4883L33.5515 74.4397C32.3796 74.5695 31.3813 73.5748 31.5115 72.4071L32.4664 63.7143L53.6476 42.6096L63.4136 52.3403L42.2323 73.4883ZM69.4468 46.3721L65.1498 50.6536L55.3838 40.9229L59.6808 36.6414C61.1132 35.2143 63.4136 35.2143 64.8459 36.6414L69.4468 41.2257C70.8791 42.6096 70.8791 44.9449 69.4468 46.3721Z" fill="#FF6666"/>
</svg>
