<svg width="102" height="112" viewBox="0 0 102 112" fill="none" xmlns="http://www.w3.org/2000/svg">
<path d="M90 19.7L63 4.20001C55.6 -0.0999939 46.4 -0.0999939 39 4.20001L12 19.7C4.6 24 0 31.9 0 40.5V71.5C0 80.1 4.6 88 12 92.3L39 107.8C46.4 112.1 55.6 112.1 63 107.8L90 92.3C97.4 88 102 80.1 102 71.5V40.5C102 31.9 97.4 24 90 19.7ZM95.7 69.6C95.7 77.1 91.7 84 85.2 87.8L61.5 101.4C55 105.2 46.9 105.2 40.4 101.4L16.8 87.8C10.3 84 6.3 77.1 6.3 69.6V42.4C6.3 34.9 10.3 28 16.8 24.2L40.5 10.6C47 6.80001 55 6.80001 61.5 10.6L85.2 24.2C91.7 28 95.7 34.9 95.7 42.4V69.6Z" fill="#3F4DF5"/>
<path d="M51 50.5C46.6 50.5 43 54.1 43 58.5C43 62.9 46.6 66.5 51 66.5C55.4 66.5 59 62.9 59 58.5C59 54.1 55.4 50.5 51 50.5ZM51 63.1C48.5 63.1 46.4 61.1 46.4 58.5C46.4 56 48.4 53.9 51 53.9C53.6 53.9 55.6 55.9 55.6 58.5C55.6 61 53.5 63.1 51 63.1Z" fill="#3F4DF5"/>
<path d="M80.6 28.5L60.1 16.7C54.5 13.5 47.5 13.5 41.8 16.7L21.4 28.5C15.8 31.7 12.3 37.8 12.3 44.2V67.8C12.3 74.3 15.8 80.3 21.4 83.5L41.9001 95.3C47.5001 98.5 54.5001 98.5 60.2001 95.3L80.7 83.5C86.3 80.3 89.8 74.2 89.8 67.8V44.2C89.8 37.7 86.2 31.7 80.6 28.5ZM73 69.2C73 71 71.6001 72.4 69.8001 72.4H32.2001C30.4001 72.4 29 71 29 69.2V48.4C29 46.6 30.4001 45.2 32.2001 45.2H38.8C40 45.2 41.2001 42.6 41.7001 41.5C42.2001 40.4 43.3 39.6 44.6 39.6H57.5C58.7 39.6 59.9001 40.3 60.4001 41.5C60.9001 42.6 62 45.2 63.3 45.2H69.9001C71.7001 45.2 73.1 46.6 73.1 48.4V69.2H73Z" fill="#3F4DF5"/>
</svg>
