<svg width="332" height="342" viewBox="0 0 332 342" fill="none" xmlns="http://www.w3.org/2000/svg">
<g filter="url(#filter0_dd_1521:4597)">
<path d="M182.25 109.578L211.068 126.216C221.123 132.022 227.318 142.751 227.318 154.362V187.638C227.318 199.249 221.123 209.978 211.068 215.784L182.25 232.422C172.194 238.227 159.806 238.227 149.75 232.422L120.932 215.784C110.877 209.978 104.682 199.249 104.682 187.638V154.362C104.682 142.751 110.877 132.022 120.932 126.216L149.75 109.578C159.806 103.773 172.194 103.773 182.25 109.578Z" fill="url(#paint0_radial_1521:4597)" fill-opacity="0.25" stroke="white" stroke-width="9"/>
<rect x="161" y="145" width="9" height="36" rx="4.5" fill="white"/>
<rect x="161" y="188" width="9" height="8" rx="4" fill="white"/>
</g>
<defs>
<filter id="filter0_dd_1521:4597" x="0.182129" y="0.724121" width="331.636" height="340.552" filterUnits="userSpaceOnUse" color-interpolation-filters="sRGB">
<feFlood flood-opacity="0" result="BackgroundImageFix"/>
<feColorMatrix in="SourceAlpha" type="matrix" values="0 0 0 0 0 0 0 0 0 0 0 0 0 0 0 0 0 0 127 0" result="hardAlpha"/>
<feOffset/>
<feGaussianBlur stdDeviation="50"/>
<feComposite in2="hardAlpha" operator="out"/>
<feColorMatrix type="matrix" values="0 0 0 0 1 0 0 0 0 0 0 0 0 0 0 0 0 0 0.25 0"/>
<feBlend mode="normal" in2="BackgroundImageFix" result="effect1_dropShadow_1521:4597"/>
<feColorMatrix in="SourceAlpha" type="matrix" values="0 0 0 0 0 0 0 0 0 0 0 0 0 0 0 0 0 0 127 0" result="hardAlpha"/>
<feOffset/>
<feGaussianBlur stdDeviation="25"/>
<feComposite in2="hardAlpha" operator="out"/>
<feColorMatrix type="matrix" values="0 0 0 0 1 0 0 0 0 0 0 0 0 0 0 0 0 0 0.5 0"/>
<feBlend mode="normal" in2="effect1_dropShadow_1521:4597" result="effect2_dropShadow_1521:4597"/>
<feBlend mode="normal" in="SourceGraphic" in2="effect2_dropShadow_1521:4597" result="shape"/>
</filter>
<radialGradient id="paint0_radial_1521:4597" cx="0" cy="0" r="1" gradientUnits="userSpaceOnUse" gradientTransform="translate(166 171) rotate(90) scale(76)">
<stop stop-color="#FF0000"/>
<stop offset="0.0001" stop-color="#FF0000" stop-opacity="0.23"/>
<stop offset="1" stop-color="#FF0000"/>
</radialGradient>
</defs>
</svg>
