<svg width="329" height="66" viewBox="0 0 329 66" fill="none" xmlns="http://www.w3.org/2000/svg">
<g clip-path="url(#clip0_4575_784)">
<path d="M53.8235 11.2194L37.6765 1.91938C33.251 -0.660625 27.749 -0.660625 23.3235 1.91938L7.17647 11.2194C2.75098 13.7994 0 18.5394 0 23.6994V42.2994C0 47.4594 2.75098 52.1994 7.17647 54.7794L23.3235 64.0794C27.749 66.6594 33.251 66.6594 37.6765 64.0794L53.8235 54.7794C58.249 52.1994 61 47.4594 61 42.2994V23.6994C61 18.5394 58.249 13.7994 53.8235 11.2194ZM57.2324 41.1594C57.2324 45.6594 54.8402 49.7994 50.9529 52.0794L36.7794 60.2394C32.8922 62.5194 28.048 62.5194 24.1608 60.2394L10.0471 52.0794C6.1598 49.7994 3.76765 45.6594 3.76765 41.1594V24.8394C3.76765 20.3394 6.1598 16.1994 10.0471 13.9194L24.2206 5.75938C28.1078 3.47938 32.8922 3.47938 36.7794 5.75938L50.9529 13.9194C54.8402 16.1994 57.2324 20.3394 57.2324 24.8394V41.1594Z" fill="white"/>
<path d="M48.2025 16.4985L35.9427 9.41852C32.5937 7.49852 28.4074 7.49852 24.9986 9.41852L12.7986 16.4985C9.44958 18.4185 7.35645 22.0785 7.35645 25.9185V40.0785C7.35645 43.9785 9.44958 47.5785 12.7986 49.4985L25.0584 56.5785C28.4074 58.4985 32.5937 58.4985 36.0025 56.5785L48.2623 49.4985C51.6113 47.5785 53.7045 43.9185 53.7045 40.0785V25.9185C53.7045 22.0185 51.5515 18.4185 48.2025 16.4985ZM15.1908 41.6385C14.4731 41.6385 13.9349 40.9785 14.0545 40.2585C14.7123 36.8985 17.6427 34.3185 21.231 34.3185C19.078 34.3185 17.3437 32.5785 17.3437 30.4185C17.3437 28.2585 19.078 26.5185 21.231 26.5185C23.3839 26.5185 25.1182 28.2585 25.1182 30.4185C25.1182 32.5785 23.3839 34.3185 21.231 34.3185C21.7692 34.3185 22.3074 34.3785 22.7859 34.4985C21.4702 35.8785 20.5731 37.6785 20.1545 39.6585C20.0349 40.3785 20.2143 41.0385 20.6329 41.6385H15.1908ZM38.3947 41.6385H22.6064C21.6496 41.6385 20.9917 40.7985 21.1712 39.8385C22.0084 35.4585 25.8957 32.0985 30.5006 32.0985C27.6898 32.0985 25.4172 29.8185 25.4172 27.0585C25.4172 24.2385 27.6898 22.0185 30.5006 22.0185C33.3113 22.0185 35.5839 24.2985 35.5839 27.0585C35.5839 29.8785 33.3113 32.0985 30.5006 32.0985C35.1653 32.0985 38.9927 35.4585 39.83 39.8385C40.0094 40.7985 39.3515 41.6385 38.3947 41.6385ZM45.8104 41.6385H40.3682C40.7868 41.0985 40.9662 40.3785 40.7868 39.6585C40.428 37.6785 39.4712 35.8785 38.1555 34.4985C38.6339 34.3785 39.1721 34.3185 39.7104 34.3185C37.5574 34.3185 35.8231 32.5785 35.8231 30.4185C35.8231 28.2585 37.5574 26.5185 39.7104 26.5185C41.8633 26.5185 43.5976 28.2585 43.5976 30.4185C43.5976 32.5785 41.8633 34.3185 39.7104 34.3185C43.2986 34.3185 46.229 36.8985 46.8868 40.2585C47.1261 40.9785 46.5878 41.6385 45.8104 41.6385Z" fill="white"/>
</g>
<path d="M118.764 24.041H111.344C108.461 24.041 106.342 26.7434 107.029 29.5427V29.5427C107.517 31.5294 109.298 32.9263 111.344 32.9263H115.28C117.326 32.9263 119.107 34.3232 119.595 36.3099V36.3099C120.282 39.1092 118.163 41.8115 115.28 41.8115H107.86" stroke="white" stroke-width="2.84176" stroke-linecap="round"/>
<path d="M132.725 32.9263H143.361C143.509 32.9263 143.63 32.8057 143.63 32.657V32.657C143.63 27.8985 139.719 24.041 134.961 24.041V24.041C130.143 24.041 126.183 28.0268 126.183 32.8448V32.8448C126.183 37.7519 130.161 41.8115 135.068 41.8115H139.268" stroke="white" stroke-width="2.84176" stroke-linecap="round" stroke-linejoin="round"/>
<ellipse cx="91.7237" cy="32.9263" rx="8.72371" ry="8.88525" stroke="white" stroke-width="2.84176"/>
<ellipse cx="91.6229" cy="32.8941" rx="1.829" ry="1.86287" fill="white"/>
<path d="M150.606 15.1553V41.811" stroke="white" stroke-width="2.84176" stroke-linecap="round"/>
<path d="M162.817 41.8115V39.5902C162.817 35.9098 159.888 32.9263 156.274 32.9263M156.274 32.9263H155.838M156.274 32.9263C159.888 32.9263 162.817 29.9427 162.817 26.2623V24.041" stroke="white" stroke-width="2.84176" stroke-linecap="round"/>
<path d="M195.971 24.042V41.8125" stroke="white" stroke-width="2.84176" stroke-linecap="round"/>
<path d="M187.247 41.8125V32.7657C187.247 27.9477 183.341 24.042 178.524 24.042V24.042C173.706 24.042 169.8 28.0278 169.8 32.8457V32.8457C169.8 37.7529 173.778 41.8125 178.685 41.8125H180.704" stroke="white" stroke-width="2.84176" stroke-linecap="round"/>
<ellipse cx="195.873" cy="16.129" rx="2.09029" ry="2.12899" fill="white"/>
<path d="M241.936 32.6744H252.829C252.979 32.6744 253.1 32.5532 253.1 32.4038V32.4038C253.1 27.6206 249.222 23.7432 244.439 23.7432H244.169C239.236 23.7432 235.237 27.7418 235.237 32.6744V32.6744C235.237 37.607 239.236 41.6056 244.169 41.6056H248.634" stroke="#EEEEEE" stroke-width="4.46562" stroke-linecap="round" stroke-linejoin="round"/>
<path d="M278.27 41.6056V32.6744C278.27 27.7418 274.271 23.7432 269.338 23.7432V23.7432C264.406 23.7432 260.407 27.7418 260.407 32.6744V32.6744C260.407 37.607 264.406 41.6056 269.338 41.6056H271.571" stroke="#EEEEEE" stroke-width="4.46562" stroke-linecap="round" stroke-linejoin="round"/>
<path d="M287.2 41.6056V27.5047C287.2 25.4273 288.884 23.7432 290.962 23.7432V23.7432C292.688 23.7432 294.192 24.9179 294.611 26.5924L295.59 30.5083C295.731 31.072 296.532 31.072 296.673 30.5083L297.652 26.5924C298.071 24.9179 299.575 23.7432 301.301 23.7432V23.7432C303.379 23.7432 305.063 25.4273 305.063 27.5047V41.6056" stroke="#EEEEEE" stroke-width="4.46562" stroke-linecap="round" stroke-linejoin="round"/>
<path d="M212.909 14.8115V28.2084C212.909 35.6073 218.907 41.6052 226.306 41.6052V41.6052H228.539M219.608 23.7428H226.306" stroke="#EEEEEE" stroke-width="4.46562" stroke-linecap="round" stroke-linejoin="round"/>
<path d="M325.767 23.7432H318.09C315.184 23.7432 313.053 26.4734 313.757 29.2919V29.2919C314.254 31.2798 316.04 32.6744 318.09 32.6744H322.28C324.329 32.6744 326.116 34.069 326.613 36.0569V36.0569C327.317 38.8754 325.186 41.6056 322.28 41.6056H314.603" stroke="#EEEEEE" stroke-width="4.46562" stroke-linecap="round" stroke-linejoin="round"/>
<defs>
<clipPath id="clip0_4575_784">
<rect width="61" height="66" fill="white"/>
</clipPath>
</defs>
</svg>
