<svg width="60" height="64" viewBox="0 0 60 64" fill="none" xmlns="http://www.w3.org/2000/svg">
<path d="M51.9999 10.4L37.5999 2C35.1999 0.8 32.7999 0 29.9999 0C27.1999 0 24.7999 0.8 22.3999 2L7.99991 10.4C3.19991 13.2 0.399902 18 0.399902 23.6V40.4C0.399902 46 3.19991 50.8 7.99991 53.6L22.3999 62C24.7999 63.2 27.1999 64 29.9999 64C32.7999 64 35.1999 63.2 37.5999 62L51.9999 53.6C56.7999 50.8 59.5999 46 59.5999 40.4V23.6C59.5999 18 56.7999 13.2 51.9999 10.4ZM53.9999 40.4C53.9999 44 51.9999 47.2 49.1999 48.8L34.7999 57.2C33.1999 58 31.5999 58.4 29.9999 58.4C28.3999 58.4 26.7999 58 25.1999 57.2L10.7999 48.8C7.9999 47.2 5.99991 44 5.99991 40.4V23.6C5.99991 20 7.9999 16.8 10.7999 15.2L25.1999 6.8C26.7999 6 28.3999 5.6 29.9999 5.6C31.5999 5.6 33.1999 6 34.7999 6.8L49.1999 15.2C51.9999 16.8 53.9999 20 53.9999 23.6V40.4ZM44.3999 30.4C45.1999 31.2 45.1999 32.8 44.3999 33.6C43.5999 34.4 41.9999 34.4 41.1999 33.6L31.9999 24.4V46C31.9999 47.2 31.1999 48 29.9999 48H29.5999C28.3999 48 27.5999 47.2 27.5999 46V24.4L18.3999 33.6C17.5999 34.4 15.9999 34.4 15.1999 33.6C14.3999 32.8 14.3999 31.2 15.1999 30.4L26.3999 19.2L27.9999 17.6C28.7999 16.8 30.3999 16.8 31.1999 17.6L32.7999 19.2L44.3999 30.4Z" fill="white"/>
</svg>
