<svg width="60" height="64" viewBox="0 0 60 64" fill="none" xmlns="http://www.w3.org/2000/svg">
<path d="M29.9999 5.6C31.5999 5.6 33.1999 6 34.7999 6.8L49.1999 15.2C51.9999 16.8 53.9999 20 53.9999 23.6V40.4C53.9999 44 51.9999 47.2 49.1999 48.8L34.7999 57.2C33.1999 58 31.5999 58.4 29.9999 58.4C28.3999 58.4 26.7999 58 25.1999 57.2L10.7999 48.8C7.9999 47.2 5.9999 44 5.9999 40.4V23.6C5.9999 20 7.9999 16.8 10.7999 15.2L25.1999 6.8C26.7999 6 28.3999 5.6 29.9999 5.6ZM29.9999 0C27.1999 0 24.7999 0.8 22.3999 2L7.9999 10.4C3.1999 13.2 0.399902 18 0.399902 23.6V40.4C0.399902 46 3.1999 50.8 7.9999 53.6L22.3999 62C24.7999 63.2 27.1999 64 29.9999 64C32.7999 64 35.1999 63.2 37.5999 62L51.9999 53.6C56.7999 50.8 59.5999 46 59.5999 40.4V23.6C59.5999 18 56.7999 13.2 51.9999 10.4L37.5999 2C35.1999 0.8 32.7999 0 29.9999 0Z" fill="white"/>
<path d="M28.0002 13.2001L15.2002 20.8001C14.0002 21.6001 13.2002 22.8001 13.2002 24.4001V39.2001C13.2002 40.8001 14.0002 42.0001 15.2002 42.8001L28.0002 50.4001C29.2002 51.2001 30.8002 51.2001 32.4002 50.4001L45.2002 42.8001C46.4002 42.0001 47.2002 40.8001 47.2002 39.2001V24.4001C47.2002 22.8001 46.4002 21.6001 45.2002 20.8001L32.0002 13.2001C30.8002 12.4001 29.2002 12.4001 28.0002 13.2001Z" fill="white"/>
</svg>
