<svg width="64" height="64" viewBox="0 0 64 64" fill="none" xmlns="http://www.w3.org/2000/svg">
<path d="M48 29.2C48 31.6 46 34 43.2 34C40.8 34 38.4 32 38.4 29.2C38.4 26.4 40.4 24.4 43.2 24.4C46 24.8 48 26.8 48 29.2ZM22.4 24.8C20 24.8 18 26.8 18 29.2C18 31.6 20 34 22.4 34C24.8 34 27.2 32 27.2 29.2C27.2 26.4 25.2 24.8 22.4 24.8ZM64 32C64 49.6 49.6 64 32 64C14.4 64 0 49.6 0 32C0 14.4 14.4 0 32 0C49.6 0 64 14.4 64 32ZM32 29.2C32 24 27.6 20 22.4 20C17.2 20 13.2 24 13.2 29.2V45.6C13.2 46.8 14.4 48 15.6 48C16.8 48 18 46.8 18 45.6V37.2C19.2 38 20.8 38.4 22.8 38.4C27.6 38.8 32 34.4 32 29.2ZM52.8 29.2C52.8 24 48.8 20 43.6 20C38.4 20 34 24 34 29.2V45.6C34 46.8 35.2 48 36.4 48C37.6 48 38.8 46.8 38.8 45.6V37.2C40 38 41.6 38.4 43.6 38.4C48.8 38.8 52.8 34.4 52.8 29.2Z" fill="white"/>
</svg>
