<svg width="64" height="64" viewBox="0 0 64 64" fill="none" xmlns="http://www.w3.org/2000/svg">
<path d="M32 0C14.4 0 0 14.4 0 32C0 49.6 14.4 64 32 64C49.6 64 64 49.6 64 32C64 14.4 49.6 0 32 0ZM50 27.2V27.6C49.6 28.4 49.2 28.8 48.4 28.8H40.4L39.2 33.6H45.2C46.8 33.6 48 35.2 47.6 36.8V37.2C47.2 38 46.8 38.4 46 38.4H38L35.6 46.8C35.2 47.6 34.8 48 34 48C32.4 48 31.2 46.4 31.6 44.8L33.6 38.4H28.8L26.4 46.8C26 47.6 25.6 48 24.8 48C23.2 48 22 46.4 22.4 44.8L24.4 38.4H18.4C16.8 38.4 15.6 36.8 16 35.2V34.8C16.4 34 16.8 33.6 17.6 33.6H25.6L26.8 28.8H20.8C19.2 28.8 18 27.2 18.4 25.6V25.2C17.2 24.4 18 24 18.8 24H26.8L29.2 16C29.6 15.2 30 14.8 30.8 14.8C32.4 14.8 33.6 16.4 33.2 18L31.6 24H36.4L38.8 16C39.2 15.2 39.6 14.8 40.4 14.8C42 14.8 43.2 16.4 42.8 18L41.2 24H47.2C49.2 24 50.4 25.6 50 27.2ZM28.8 33.6H33.6L34.8 28.8H30L28.8 33.6Z" fill="white"/>
</svg>
