<svg width="64" height="64" viewBox="0 0 64 64" fill="none" xmlns="http://www.w3.org/2000/svg">
<path d="M32 0C14.4 0 0 14.4 0 32C0 49.6 14.4 64 32 64C49.6 64 64 49.6 64 32C64 14.4 49.6 0 32 0ZM23.2 41.2H7.20001V37.6H23.2C25.6 37.6 26 36.8 26 36C26 34.8 24.8 34 22.4 34L13.6 33.2C9.60001 32.8 7.20001 31.6 7.20001 28C7.20001 24 10.4 22.8 14 22.8H28.8V26H13.6C12 26 10.8 26.4 10.8 27.6C10.8 28.8 11.6 29.2 14.4 29.2L22.8 30C27.6 30.8 30.4 32 30.4 36C30.4 38.8 28.4 41.2 23.2 41.2ZM48.8 41.2H32.8V37.6H48.8C51.2 37.6 52 36.8 52 36C52 34.8 50.8 34 48.4 34L39.6 33.2C35.6 32.8 33.2 31.6 33.2 28C33.2 24 36.4 22.8 40 22.8H54.8V26H39.6C38 26 36.8 26.4 36.8 27.6C36.8 28.8 37.6 29.2 40.4 29.2L48.8 30C53.2 30.8 56 32 56 36C56 38.8 54 41.2 48.8 41.2Z" fill="white"/>
</svg>
