<svg width="53" height="47" viewBox="0 0 53 47" fill="none" xmlns="http://www.w3.org/2000/svg">
    <path d="M47.4516 3.34582C41.4684 -1.68504 32.2244 -0.929372 26.5 4.89856C20.7756 -0.929372 11.5317 -1.69539 5.54845 3.34582C-2.23593 9.89836 -1.09725 20.5812 4.45118 26.2435L22.6078 44.7417C23.643 45.7976 25.0301 46.3876 26.5 46.3876C27.9803 46.3876 29.357 45.8079 30.3922 44.7521L48.5488 26.2538C54.0869 20.5915 55.2463 9.90871 47.4516 3.34582ZM45.0086 22.755L26.852 41.2532C26.6035 41.5017 26.3965 41.5017 26.1481 41.2532L7.99142 22.755C4.2131 18.9042 3.44708 11.6167 8.74708 7.1552C12.7738 3.77024 18.9848 4.27746 22.877 8.24211L26.5 11.9376L30.1231 8.24211C34.0359 4.25676 40.2469 3.77024 44.2529 7.14485C49.5426 11.6064 48.7559 18.9353 45.0086 22.755Z" fill="white" />
</svg>
    