<svg width="1366" height="768" viewBox="0 0 1366 768" fill="none" xmlns="http://www.w3.org/2000/svg">
    <rect width="1366" height="768" fill="#515151" />
    <mask id="mask0_2113_6908" style="mask-type:alpha" maskUnits="userSpaceOnUse" x="0" y="0" width="1366" height="768">
        <rect width="1366" height="768" fill="#C4C4C4" />
    </mask>
    <g mask="url(#mask0_2113_6908)">
        <g filter="url(#filter0_f_2113_6908)">
            <path d="M201.577 897C182.27 796.999 213.97 581.155 495.233 517.788C846.812 438.58 829.3 714.82 1093.32 426.698C1357.34 138.577 1587.69 -62.4154 1093.32 -104" stroke="url(#paint0_linear_2113_6908)" stroke-width="300" />
        </g>
        <g filter="url(#filter1_f_2113_6908)">
            <path d="M27 -92.9893C87.6336 -95.6312 10.5616 390.1 354.421 499.477C784.246 636.199 444.698 -84.0673 852.964 88.3212C1261.23 260.71 1056.42 1012.67 1303 643.129" stroke="url(#paint1_linear_2113_6908)" stroke-width="300" />
        </g>
    </g>
    <rect width="1366" height="768" fill="#000000" fill-opacity="0.5" />
    <rect width="1366" height="768" fill="#5865F2" fill-opacity="0.5" />
    <defs>
        <filter id="filter0_f_2113_6908" x="-302.983" y="-603.472" width="2186.99" height="1878.91" filterUnits="userSpaceOnUse" color-interpolation-filters="sRGB">
            <feFlood flood-opacity="0" result="BackgroundImageFix" />
            <feBlend mode="normal" in="SourceGraphic" in2="BackgroundImageFix" result="shape" />
            <feGaussianBlur stdDeviation="175" result="effect1_foregroundBlur_2113_6908" />
        </filter>
        <filter id="filter1_f_2113_6908" x="-448.136" y="-593.008" width="2225.91" height="1837.02" filterUnits="userSpaceOnUse" color-interpolation-filters="sRGB">
            <feFlood flood-opacity="0" result="BackgroundImageFix" />
            <feBlend mode="normal" in="SourceGraphic" in2="BackgroundImageFix" result="shape" />
            <feGaussianBlur stdDeviation="175" result="effect1_foregroundBlur_2113_6908" />
        </filter>
        <linearGradient id="paint0_linear_2113_6908" x1="1264.4" y1="-104.99" x2="539.203" y2="1080.42" gradientUnits="userSpaceOnUse">
            <stop stop-color="#8042E6" />
            <stop offset="0.552083" stop-color="#EE9732" />
            <stop offset="1" stop-color="#32AAEE" />
        </linearGradient>
        <linearGradient id="paint1_linear_2113_6908" x1="1303" y1="733.291" x2="226.627" y2="-245.742" gradientUnits="userSpaceOnUse">
            <stop stop-color="#EE9732" />
            <stop offset="0.458333" stop-color="#32AAEE" />
            <stop offset="1" stop-color="#8042E6" />
        </linearGradient>
    </defs>
</svg>