<svg width="498" height="526" viewBox="0 0 498 526" fill="none" xmlns="http://www.w3.org/2000/svg">
    <g filter="url(#filter0_d_2143_6099)">
        <path d="M296 57.7654L390.31 112.215C421.869 130.436 441.31 164.109 441.31 200.55V309.45C441.31 345.891 421.869 379.564 390.31 397.785L296 452.235C264.441 470.455 225.559 470.455 194 452.235L99.6898 397.785C68.1309 379.564 48.6898 345.891 48.6898 309.45V200.55C48.6898 164.109 68.1309 130.436 99.6898 112.215L194 57.7654C225.559 39.5448 264.441 39.5448 296 57.7654Z" stroke="white" stroke-width="30" />
    </g>
    <g filter="url(#filter1_f_2143_6099)">
        <mask id="mask0_2143_6099" style="mask-type:alpha" maskUnits="userSpaceOnUse" x="63" y="58" width="364" height="394">
            <path fill-rule="evenodd" clip-rule="evenodd" d="M289 70.403C261.773 54.6834 228.227 54.6834 201 70.403L107.135 124.596C79.9075 140.316 63.1348 169.367 63.1348 200.806V309.193C63.1348 340.632 79.9075 369.683 107.135 385.403L201 439.596C228.227 455.316 261.773 455.316 289 439.596L382.865 385.403C410.093 369.683 426.865 340.632 426.865 309.193V200.806C426.865 169.367 410.093 140.316 382.865 124.596L289 70.403ZM261.402 271.903C266.484 271.903 270.495 267.474 270.495 262.07C270.495 256.666 266.484 252.237 261.402 252.237C256.321 252.237 252.31 256.666 252.31 262.07C252.31 267.474 256.41 271.903 261.402 271.903ZM219.773 262.07C219.773 256.666 223.784 252.237 228.865 252.237C233.946 252.237 238.047 256.666 237.958 262.07C237.958 267.474 233.946 271.903 228.865 271.903C223.873 271.903 219.773 267.474 219.773 262.07ZM323 355.085V196.162C323 186.064 314.799 177.914 304.726 177.914H185.274C175.201 177.914 167 186.064 167 196.162V315.93C167 326.029 175.201 334.179 185.274 334.179H286.362L281.638 317.791C295.546 330.64 299.998 334.783 304.526 338.84C308.492 342.392 312.516 345.878 323 355.085ZM284.758 228.496C284.758 228.496 297.594 251.617 297.594 280.142C297.594 280.142 290.017 292.987 270.317 293.607C270.317 293.607 267.108 289.797 264.433 286.431C276.111 283.154 280.568 275.889 280.568 275.889C276.913 278.281 273.437 279.964 270.317 281.116C251.111 289.132 229.738 286.389 214.692 278.016C214.648 277.986 214.488 277.895 214.252 277.76C213.513 277.339 212.031 276.492 211.037 275.801C211.037 275.801 215.316 282.888 226.637 286.254C223.962 289.62 220.664 293.607 220.664 293.607C200.964 292.987 193.476 280.142 193.476 280.142C193.476 251.617 206.312 228.496 206.312 228.496C219.149 218.929 231.361 219.195 231.361 219.195L232.253 220.258C216.207 224.864 208.808 231.862 208.808 231.862C208.808 231.862 210.769 230.799 214.068 229.293C234.608 220.327 259.482 220.329 280.657 231.862C280.657 231.862 273.615 225.218 258.461 220.612L259.709 219.195C259.709 219.195 271.921 218.929 284.758 228.496Z" fill="#5865F2" />
        </mask>
        <g mask="url(#mask0_2143_6099)"></g>
        <mask id="mask1_2143_6099" style="mask-type:alpha" maskUnits="userSpaceOnUse" x="63" y="58" width="364" height="394">
            <path fill-rule="evenodd" clip-rule="evenodd" d="M289 70.403C261.773 54.6834 228.227 54.6834 201 70.403L107.135 124.596C79.9075 140.316 63.1348 169.367 63.1348 200.806V309.193C63.1348 340.632 79.9075 369.683 107.135 385.403L201 439.596C228.227 455.316 261.773 455.316 289 439.596L382.865 385.403C410.093 369.683 426.865 340.632 426.865 309.193V200.806C426.865 169.367 410.093 140.316 382.865 124.596L289 70.403ZM261.402 271.903C266.484 271.903 270.495 267.474 270.495 262.07C270.495 256.666 266.484 252.237 261.402 252.237C256.321 252.237 252.31 256.666 252.31 262.07C252.31 267.474 256.41 271.903 261.402 271.903ZM219.773 262.07C219.773 256.666 223.784 252.237 228.865 252.237C233.946 252.237 238.047 256.666 237.958 262.07C237.958 267.474 233.946 271.903 228.865 271.903C223.873 271.903 219.773 267.474 219.773 262.07ZM323 355.085V196.162C323 186.064 314.799 177.914 304.726 177.914H185.274C175.201 177.914 167 186.064 167 196.162V315.93C167 326.029 175.201 334.179 185.274 334.179H286.362L281.638 317.791C295.546 330.64 299.998 334.783 304.526 338.84C308.492 342.392 312.516 345.878 323 355.085ZM284.758 228.496C284.758 228.496 297.594 251.617 297.594 280.142C297.594 280.142 290.017 292.987 270.317 293.607C270.317 293.607 267.108 289.797 264.433 286.431C276.111 283.154 280.568 275.889 280.568 275.889C276.913 278.281 273.437 279.964 270.317 281.116C251.111 289.132 229.738 286.389 214.692 278.016C214.648 277.986 214.488 277.895 214.252 277.76C213.513 277.339 212.031 276.492 211.037 275.801C211.037 275.801 215.316 282.888 226.637 286.254C223.962 289.62 220.664 293.607 220.664 293.607C200.964 292.987 193.476 280.142 193.476 280.142C193.476 251.617 206.312 228.496 206.312 228.496C219.149 218.929 231.361 219.195 231.361 219.195L232.253 220.258C216.207 224.864 208.808 231.862 208.808 231.862C208.808 231.862 210.769 230.799 214.068 229.293C234.608 220.327 259.482 220.329 280.657 231.862C280.657 231.862 273.615 225.218 258.461 220.612L259.709 219.195C259.709 219.195 271.921 218.929 284.758 228.496Z" fill="#5865F2" />
        </mask>
        <g mask="url(#mask1_2143_6099)">
            <rect x="52" y="56" width="378" height="398" fill="#515151" />
            <mask id="mask2_2143_6099" style="mask-type:alpha" maskUnits="userSpaceOnUse" x="52" y="56" width="378" height="398">
                <rect x="52" y="56" width="378" height="398" fill="#C4C4C4" />
            </mask>
            <g mask="url(#mask2_2143_6099)">
                <g filter="url(#filter2_f_2143_6099)">
                    <path d="M128.084 393C123.513 366.726 131.017 310.016 197.601 293.367C280.831 272.556 276.685 345.135 339.187 269.434C401.689 193.734 456.219 140.926 339.187 130" stroke="url(#paint0_linear_2143_6099)" stroke-width="300" />
                </g>
                <g filter="url(#filter3_f_2143_6099)">
                    <path d="M86 133.003C100.398 132.308 82.0965 259.98 163.75 288.729C265.816 324.665 185.187 135.348 282.134 180.659C379.081 225.97 330.448 423.619 389 326.487" stroke="url(#paint1_linear_2143_6099)" stroke-width="300" />
                </g>
            </g>
            <rect x="52" y="56" width="378" height="398" fill="#5865F2" fill-opacity="0.5" />
        </g>
    </g>
    <mask id="mask3_2143_6099" style="mask-type:alpha" maskUnits="userSpaceOnUse" x="63" y="58" width="364" height="394">
        <path fill-rule="evenodd" clip-rule="evenodd" d="M289 70.403C261.773 54.6834 228.227 54.6834 201 70.403L107.135 124.596C79.9075 140.316 63.1348 169.367 63.1348 200.806V309.193C63.1348 340.632 79.9075 369.683 107.135 385.403L201 439.596C228.227 455.316 261.773 455.316 289 439.596L382.865 385.403C410.093 369.683 426.865 340.632 426.865 309.193V200.806C426.865 169.367 410.093 140.316 382.865 124.596L289 70.403ZM261.402 271.903C266.484 271.903 270.495 267.474 270.495 262.07C270.495 256.666 266.484 252.237 261.402 252.237C256.321 252.237 252.31 256.666 252.31 262.07C252.31 267.474 256.41 271.903 261.402 271.903ZM219.773 262.07C219.773 256.666 223.784 252.237 228.865 252.237C233.946 252.237 238.047 256.666 237.958 262.07C237.958 267.474 233.946 271.903 228.865 271.903C223.873 271.903 219.773 267.474 219.773 262.07ZM323 355.085V196.162C323 186.064 314.799 177.914 304.726 177.914H185.274C175.201 177.914 167 186.064 167 196.162V315.93C167 326.029 175.201 334.179 185.274 334.179H286.362L281.638 317.791C295.546 330.64 299.998 334.783 304.526 338.84C308.492 342.392 312.516 345.878 323 355.085ZM284.758 228.496C284.758 228.496 297.594 251.617 297.594 280.142C297.594 280.142 290.017 292.987 270.317 293.607C270.317 293.607 267.108 289.797 264.433 286.431C276.111 283.154 280.568 275.889 280.568 275.889C276.913 278.281 273.437 279.964 270.317 281.116C251.111 289.132 229.738 286.389 214.692 278.016C214.648 277.986 214.488 277.895 214.252 277.76C213.513 277.339 212.031 276.492 211.037 275.801C211.037 275.801 215.316 282.888 226.637 286.254C223.962 289.62 220.664 293.607 220.664 293.607C200.964 292.987 193.476 280.142 193.476 280.142C193.476 251.617 206.312 228.496 206.312 228.496C219.149 218.929 231.361 219.195 231.361 219.195L232.253 220.258C216.207 224.864 208.808 231.862 208.808 231.862C208.808 231.862 210.769 230.799 214.068 229.293C234.608 220.327 259.482 220.329 280.657 231.862C280.657 231.862 273.615 225.218 258.461 220.612L259.709 219.195C259.709 219.195 271.921 218.929 284.758 228.496Z" fill="#5865F2" />
    </mask>
    <g mask="url(#mask3_2143_6099)"></g>
    <mask id="mask4_2143_6099" style="mask-type:alpha" maskUnits="userSpaceOnUse" x="63" y="58" width="364" height="394">
        <path fill-rule="evenodd" clip-rule="evenodd" d="M289 70.403C261.773 54.6834 228.227 54.6834 201 70.403L107.135 124.596C79.9075 140.316 63.1348 169.367 63.1348 200.806V309.193C63.1348 340.632 79.9075 369.683 107.135 385.403L201 439.596C228.227 455.316 261.773 455.316 289 439.596L382.865 385.403C410.093 369.683 426.865 340.632 426.865 309.193V200.806C426.865 169.367 410.093 140.316 382.865 124.596L289 70.403ZM261.402 271.903C266.484 271.903 270.495 267.474 270.495 262.07C270.495 256.666 266.484 252.237 261.402 252.237C256.321 252.237 252.31 256.666 252.31 262.07C252.31 267.474 256.41 271.903 261.402 271.903ZM219.773 262.07C219.773 256.666 223.784 252.237 228.865 252.237C233.946 252.237 238.047 256.666 237.958 262.07C237.958 267.474 233.946 271.903 228.865 271.903C223.873 271.903 219.773 267.474 219.773 262.07ZM323 355.085V196.162C323 186.064 314.799 177.914 304.726 177.914H185.274C175.201 177.914 167 186.064 167 196.162V315.93C167 326.029 175.201 334.179 185.274 334.179H286.362L281.638 317.791C295.546 330.64 299.998 334.783 304.526 338.84C308.492 342.392 312.516 345.878 323 355.085ZM284.758 228.496C284.758 228.496 297.594 251.617 297.594 280.142C297.594 280.142 290.017 292.987 270.317 293.607C270.317 293.607 267.108 289.797 264.433 286.431C276.111 283.154 280.568 275.889 280.568 275.889C276.913 278.281 273.437 279.964 270.317 281.116C251.111 289.132 229.738 286.389 214.692 278.016C214.648 277.986 214.488 277.895 214.252 277.76C213.513 277.339 212.031 276.492 211.037 275.801C211.037 275.801 215.316 282.888 226.637 286.254C223.962 289.62 220.664 293.607 220.664 293.607C200.964 292.987 193.476 280.142 193.476 280.142C193.476 251.617 206.312 228.496 206.312 228.496C219.149 218.929 231.361 219.195 231.361 219.195L232.253 220.258C216.207 224.864 208.808 231.862 208.808 231.862C208.808 231.862 210.769 230.799 214.068 229.293C234.608 220.327 259.482 220.329 280.657 231.862C280.657 231.862 273.615 225.218 258.461 220.612L259.709 219.195C259.709 219.195 271.921 218.929 284.758 228.496Z" fill="#5865F2" />
    </mask>
    <g mask="url(#mask4_2143_6099)">
        <rect x="52" y="56" width="378" height="398" fill="#515151" />
        <mask id="mask5_2143_6099" style="mask-type:alpha" maskUnits="userSpaceOnUse" x="52" y="56" width="378" height="398">
            <rect x="52" y="56" width="378" height="398" fill="#C4C4C4" />
        </mask>
        <g mask="url(#mask5_2143_6099)">
            <g filter="url(#filter4_f_2143_6099)">
                <path d="M128.084 393C123.513 366.726 131.017 310.016 197.601 293.367C280.831 272.556 276.685 345.135 339.187 269.434C401.689 193.734 456.219 140.926 339.187 130" stroke="url(#paint2_linear_2143_6099)" stroke-width="300" />
            </g>
            <g filter="url(#filter5_f_2143_6099)">
                <path d="M86 133.003C100.398 132.308 82.0965 259.98 163.75 288.729C265.816 324.665 185.187 135.348 282.134 180.659C379.081 225.97 330.448 423.619 389 326.487" stroke="url(#paint3_linear_2143_6099)" stroke-width="300" />
            </g>
        </g>
        <rect x="52" y="56" width="378" height="398" fill="#5865F2" fill-opacity="0.5" />
    </g>
    <g filter="url(#filter6_d_2143_6099)">
        <path d="M270.495 262.07C270.495 267.474 266.483 271.904 261.402 271.904C256.41 271.904 252.31 267.474 252.31 262.07C252.31 256.667 256.321 252.237 261.402 252.237C266.483 252.237 270.495 256.667 270.495 262.07ZM228.865 252.237C223.784 252.237 219.773 256.667 219.773 262.07C219.773 267.474 223.873 271.904 228.865 271.904C233.946 271.904 237.958 267.474 237.958 262.07C238.047 256.667 233.946 252.237 228.865 252.237ZM323 196.163V355.085C300.542 335.363 307.725 341.892 281.638 317.791L286.362 334.179H185.274C175.201 334.179 167 326.029 167 315.931V196.163C167 186.064 175.201 177.914 185.274 177.914H304.726C314.799 177.914 323 186.064 323 196.163ZM297.594 280.142C297.594 251.617 284.758 228.497 284.758 228.497C271.921 218.929 259.709 219.195 259.709 219.195L258.461 220.612C273.615 225.219 280.657 231.863 280.657 231.863C259.482 220.33 234.608 220.328 214.067 229.294C210.769 230.8 208.808 231.863 208.808 231.863C208.808 231.863 216.207 224.864 232.253 220.258L231.361 219.195C231.361 219.195 219.149 218.929 206.312 228.497C206.312 228.497 193.475 251.617 193.475 280.142C193.475 280.142 200.963 292.987 220.664 293.607C220.664 293.607 223.962 289.621 226.637 286.254C215.315 282.888 211.037 275.801 211.037 275.801C212.348 276.713 214.51 277.896 214.691 278.016C229.738 286.389 251.11 289.133 270.317 281.116C273.437 279.965 276.913 278.282 280.568 275.89C280.568 275.89 276.111 283.154 264.433 286.432C267.107 289.798 270.317 293.607 270.317 293.607C290.017 292.987 297.594 280.142 297.594 280.142V280.142Z" fill="white" />
    </g>
    <defs>
        <filter id="filter0_d_2143_6099" x="0.689941" y="0.0996094" width="496.62" height="525.801" filterUnits="userSpaceOnUse" color-interpolation-filters="sRGB">
            <feFlood flood-opacity="0" result="BackgroundImageFix" />
            <feColorMatrix in="SourceAlpha" type="matrix" values="0 0 0 0 0 0 0 0 0 0 0 0 0 0 0 0 0 0 127 0" result="hardAlpha" />
            <feOffset dx="4" dy="8" />
            <feGaussianBlur stdDeviation="18.5" />
            <feColorMatrix type="matrix" values="0 0 0 0 0 0 0 0 0 0 0 0 0 0 0 0 0 0 0.25 0" />
            <feBlend mode="normal" in2="BackgroundImageFix" result="effect1_dropShadow_2143_6099" />
            <feBlend mode="normal" in="SourceGraphic" in2="effect1_dropShadow_2143_6099" result="shape" />
        </filter>
        <filter id="filter1_f_2143_6099" x="42.1348" y="37.6133" width="405.73" height="434.772" filterUnits="userSpaceOnUse" color-interpolation-filters="sRGB">
            <feFlood flood-opacity="0" result="BackgroundImageFix" />
            <feBlend mode="normal" in="SourceGraphic" in2="BackgroundImageFix" result="shape" />
            <feGaussianBlur stdDeviation="10.5" result="effect1_foregroundBlur_2143_6099" />
        </filter>
        <filter id="filter2_f_2143_6099" x="-122.988" y="-119.351" width="780.992" height="674.183" filterUnits="userSpaceOnUse" color-interpolation-filters="sRGB">
            <feFlood flood-opacity="0" result="BackgroundImageFix" />
            <feBlend mode="normal" in="SourceGraphic" in2="BackgroundImageFix" result="shape" />
            <feGaussianBlur stdDeviation="50" result="effect1_foregroundBlur_2143_6099" />
        </filter>
        <filter id="filter3_f_2143_6099" x="-156.496" y="-117.012" width="773.96" height="720.031" filterUnits="userSpaceOnUse" color-interpolation-filters="sRGB">
            <feFlood flood-opacity="0" result="BackgroundImageFix" />
            <feBlend mode="normal" in="SourceGraphic" in2="BackgroundImageFix" result="shape" />
            <feGaussianBlur stdDeviation="50" result="effect1_foregroundBlur_2143_6099" />
        </filter>
        <filter id="filter4_f_2143_6099" x="-122.988" y="-119.351" width="780.992" height="674.183" filterUnits="userSpaceOnUse" color-interpolation-filters="sRGB">
            <feFlood flood-opacity="0" result="BackgroundImageFix" />
            <feBlend mode="normal" in="SourceGraphic" in2="BackgroundImageFix" result="shape" />
            <feGaussianBlur stdDeviation="50" result="effect1_foregroundBlur_2143_6099" />
        </filter>
        <filter id="filter5_f_2143_6099" x="-156.496" y="-117.012" width="773.96" height="720.031" filterUnits="userSpaceOnUse" color-interpolation-filters="sRGB">
            <feFlood flood-opacity="0" result="BackgroundImageFix" />
            <feBlend mode="normal" in="SourceGraphic" in2="BackgroundImageFix" result="shape" />
            <feGaussianBlur stdDeviation="50" result="effect1_foregroundBlur_2143_6099" />
        </filter>
        <filter id="filter6_d_2143_6099" x="134" y="148.914" width="230" height="251.172" filterUnits="userSpaceOnUse" color-interpolation-filters="sRGB">
            <feFlood flood-opacity="0" result="BackgroundImageFix" />
            <feColorMatrix in="SourceAlpha" type="matrix" values="0 0 0 0 0 0 0 0 0 0 0 0 0 0 0 0 0 0 127 0" result="hardAlpha" />
            <feOffset dx="4" dy="8" />
            <feGaussianBlur stdDeviation="18.5" />
            <feColorMatrix type="matrix" values="0 0 0 0 0 0 0 0 0 0 0 0 0 0 0 0 0 0 0.25 0" />
            <feBlend mode="normal" in2="BackgroundImageFix" result="effect1_dropShadow_2143_6099" />
            <feBlend mode="normal" in="SourceGraphic" in2="effect1_dropShadow_2143_6099" result="shape" />
        </filter>
        <linearGradient id="paint0_linear_2143_6099" x1="379.686" y1="129.74" x2="180.775" y2="422.701" gradientUnits="userSpaceOnUse">
            <stop stop-color="#8042E6" />
            <stop offset="0.552083" stop-color="#EE9732" />
            <stop offset="1" stop-color="#32AAEE" />
        </linearGradient>
        <linearGradient id="paint1_linear_2143_6099" x1="389" y1="350.185" x2="110.202" y2="121.088" gradientUnits="userSpaceOnUse">
            <stop stop-color="#EE9732" />
            <stop offset="0.458333" stop-color="#32AAEE" />
            <stop offset="1" stop-color="#8042E6" />
        </linearGradient>
        <linearGradient id="paint2_linear_2143_6099" x1="379.686" y1="129.74" x2="180.775" y2="422.701" gradientUnits="userSpaceOnUse">
            <stop stop-color="#8042E6" />
            <stop offset="0.552083" stop-color="#EE9732" />
            <stop offset="1" stop-color="#32AAEE" />
        </linearGradient>
        <linearGradient id="paint3_linear_2143_6099" x1="389" y1="350.185" x2="110.202" y2="121.088" gradientUnits="userSpaceOnUse">
            <stop stop-color="#EE9732" />
            <stop offset="0.458333" stop-color="#32AAEE" />
            <stop offset="1" stop-color="#8042E6" />
        </linearGradient>
    </defs>
</svg>
    