<svg width="433" height="95" viewBox="0 0 433 95" fill="none" xmlns="http://www.w3.org/2000/svg">
<g opacity="0.95">
<g clip-path="url(#clip0_1922_5829)">
<path d="M41.0645 16.1223C43.534 16.1223 45.933 16.7618 48.0497 17.9699L65.9008 28.3448C70.2048 30.8319 72.886 35.4509 72.886 40.4963V61.2462C72.886 66.2205 70.2048 70.9105 65.9008 73.3976L47.9792 83.7726C45.8624 84.9806 43.4635 85.6202 40.994 85.6202C38.5244 85.6202 36.1255 84.9806 34.0088 83.7726L16.2282 73.3976C11.9242 70.9105 9.24304 66.2915 9.24304 61.2462V40.4963C9.24304 35.522 11.9242 30.8319 16.2282 28.3448L34.0793 17.9699C36.196 16.7618 38.595 16.1223 41.0645 16.1223ZM41.0645 6.74219C37.0427 6.74219 33.0209 7.80811 29.4931 9.86888L11.5714 20.2438C4.44513 24.4364 0 32.1111 0 40.4963V61.2462C0 69.5603 4.44513 77.306 11.5714 81.4986L29.4225 91.8736C33.021 93.9343 37.0427 95.0003 40.994 95.0003C44.9452 95.0003 49.0375 93.9343 52.5654 91.8736L70.4165 81.4986C77.6133 77.306 81.9879 69.6314 81.9879 61.2462V40.4963C81.9879 32.1821 77.5428 24.4364 70.4165 20.2438L52.636 9.86888C49.0375 7.80811 45.0863 6.74219 41.0645 6.74219Z" fill="url(#paint0_linear_1922_5829)"/>
<g opacity="0.9">
<path opacity="0.9" d="M41.1348 31.9693C41.4876 31.9693 41.8404 32.0403 42.1226 32.2535L56.5164 40.6388C57.1514 40.9941 57.5042 41.7047 57.5042 42.4153V59.1857C57.5042 59.8964 57.0808 60.607 56.5164 60.9623L42.1932 69.3475C41.911 69.5607 41.5582 69.6317 41.2054 69.6317C40.8526 69.6317 40.4998 69.5607 40.2176 69.3475L25.6827 60.9623C25.0477 60.607 24.6949 59.8964 24.6949 59.1857V42.4153C24.6949 41.7047 25.1183 40.9941 25.6827 40.6388L40.0765 32.2535C40.4293 32.0403 40.782 31.9693 41.1348 31.9693ZM41.1348 25.4316C39.6531 25.4316 38.1714 25.7869 36.9014 26.5686L22.5076 35.0249C19.897 36.5883 18.2742 39.3596 18.2742 42.4863V59.2568C18.2742 62.3124 19.897 65.1549 22.5076 66.7182L36.9014 75.1035C38.242 75.8851 39.7237 76.2404 41.1348 76.2404C42.546 76.2404 44.0982 75.8851 45.3683 75.1035L59.762 66.7182C62.3727 65.1549 63.9955 62.3835 63.9955 59.2568V42.4153C63.9955 39.3596 62.3727 36.5172 59.762 34.9538L45.4388 26.6397C44.0982 25.858 42.6165 25.4316 41.1348 25.4316Z" fill="url(#paint1_linear_1922_5829)"/>
</g>
<g opacity="0.8">
<path opacity="0.8" d="M40.994 43.4811C41.1351 43.4811 41.2763 43.5521 41.4174 43.5521L47.062 46.8209C47.3442 46.9631 47.4853 47.2473 47.4853 47.5316V54.0692C47.4853 54.3534 47.3442 54.6377 47.062 54.7798L41.4174 58.0486C41.2763 58.1197 41.1351 58.1197 40.994 58.1197C40.8529 58.1197 40.7118 58.0486 40.5707 58.0486L34.9261 54.7798C34.6438 54.6377 34.5027 54.3534 34.5027 54.0692V47.5316C34.5027 47.2473 34.6438 46.9631 34.9261 46.8209L40.5707 43.5521C40.7823 43.5521 40.8529 43.4811 40.994 43.4811ZM40.994 40.9229C40.4296 40.9229 39.8651 41.065 39.3006 41.3492L33.656 44.618C32.5977 45.1865 31.9626 46.3235 31.9626 47.5316V54.0692C31.9626 55.2772 32.5977 56.3431 33.656 56.9827L39.3006 60.2515C39.7945 60.5358 40.359 60.6779 40.994 60.6779C41.629 60.6779 42.1229 60.5358 42.6874 60.2515L48.332 56.9827C49.3904 56.4142 50.0254 55.2772 50.0254 54.0692V47.5316C50.0254 46.3235 49.3904 45.2576 48.332 44.618L42.6874 41.3492C42.1935 41.065 41.629 40.9229 40.994 40.9229Z" fill="url(#paint2_linear_1922_5829)"/>
</g>
</g>
<path d="M163.706 39.3902C162.33 35.9253 160.247 32.7847 157.591 30.168C154.936 27.5512 151.765 25.5155 148.28 24.1902C144.497 22.7257 140.47 21.9956 136.414 22.0389C132.394 22.0015 128.404 22.7317 124.658 24.1902C121.161 25.5325 117.978 27.5793 115.305 30.2036C112.632 32.8279 110.527 35.9736 109.121 39.4454C107.614 43.1788 106.864 47.1748 106.915 51.2009C106.874 55.2134 107.643 59.1929 109.176 62.9012C110.612 66.3726 112.724 69.523 115.391 72.1683C118.063 74.7797 121.234 76.8265 124.714 78.187C128.439 79.6487 132.412 80.3791 136.414 80.3383C140.442 80.379 144.44 79.6488 148.194 78.187C151.691 76.8435 154.875 74.7963 157.548 72.1722C160.222 69.5482 162.328 66.4031 163.737 62.9318C165.245 59.1984 165.995 55.2024 165.944 51.1764C165.978 47.1389 165.218 43.1341 163.706 39.3902ZM148.224 63.2383C145.319 66.3641 141.382 67.927 136.414 67.927C131.445 67.927 127.508 66.3641 124.603 63.2383C121.698 60.1288 120.248 56.1225 120.252 51.2193C120.227 48.9225 120.611 46.6397 121.385 44.4773C122.086 42.4894 123.18 40.6633 124.603 39.1083C126.022 37.5813 127.758 36.3845 129.69 35.6025C134.019 33.9438 138.808 33.9438 143.137 35.6025C145.068 36.3861 146.805 37.5826 148.224 39.1083C149.647 40.6639 150.741 42.4898 151.442 44.4773C152.214 46.6405 152.598 48.9228 152.576 51.2193C152.576 56.1225 151.126 60.1288 148.224 63.2383Z" fill="url(#paint3_linear_1922_5829)"/>
<path d="M176.191 63.4101C177.699 62.0556 179.127 61.3753 180.481 61.3753C181.988 61.4499 183.407 62.1096 184.435 63.214C188.651 67.0549 193.324 68.9773 198.452 68.9814C204.332 68.9814 207.269 67.1734 207.265 63.5572C207.294 62.7653 207.098 61.9814 206.701 61.2956C206.164 60.5573 205.441 59.9739 204.605 59.604C203.317 58.9618 201.976 58.4307 200.597 58.0166C198.938 57.4936 196.789 56.8541 194.149 56.0982C192.648 55.6446 191.342 55.2524 190.251 54.9092C189.16 54.5659 188.161 54.235 187.254 53.8917C186.37 53.5642 185.504 53.1877 184.661 52.764C183.828 52.3472 182.927 51.8385 181.946 51.2379C180.111 50.165 178.635 48.5716 177.705 46.6595C176.767 44.4936 176.317 42.148 176.387 39.7888C176.33 37.117 176.89 34.468 178.024 32.0479C179.076 29.8789 180.626 27.989 182.547 26.5317C184.58 25.0079 186.879 23.8752 189.326 23.1914C192.105 22.4181 194.979 22.0385 197.863 22.0637C206.019 22.0514 212.14 24.2293 216.226 28.5972C218.861 31.2409 218.861 34.0296 216.226 36.9634C214.416 38.4711 212.908 39.225 211.703 39.225C210.722 39.225 209.484 38.6979 207.976 37.6375C206.162 36.3647 204.209 35.3036 202.154 34.475C200.339 33.7439 198.404 33.3593 196.448 33.3411C191.544 33.3411 189.093 34.9632 189.093 38.2075C189.093 39.94 189.941 41.2578 191.636 42.1608C193.332 43.0638 196.217 44.0056 200.29 44.9863C201.647 45.2845 202.795 45.5481 203.735 45.7769C204.679 46.0098 205.574 46.255 206.45 46.5124C207.327 46.7698 208.142 47.0579 208.932 47.3643C209.843 47.7181 210.732 48.1274 211.592 48.5901C214.53 50.102 216.696 51.9407 218.089 54.1063C219.483 56.2718 220.179 59.1157 220.179 62.6379C220.179 68.5177 218.222 72.9449 214.308 75.9195C210.393 78.8941 205.006 80.3814 198.145 80.3814C193.575 80.4717 189.026 79.7282 184.723 78.1872C180.837 76.7244 177.915 74.7856 175.958 72.3708C173.253 69.106 173.331 66.1192 176.191 63.4101Z" fill="url(#paint4_linear_1922_5829)"/>
<path d="M424.938 22.9463C425.821 22.9109 426.701 23.0636 427.52 23.3944C428.338 23.7251 429.078 24.2263 429.688 24.8646C430.931 26.2151 431.592 28.001 431.527 29.8353V72.4443C431.589 74.2947 430.93 76.0969 429.688 77.4701C429.087 78.1247 428.351 78.6408 427.531 78.9826C426.711 79.3245 425.826 79.4839 424.938 79.4498C424.034 79.4921 423.131 79.337 422.293 78.9951C421.454 78.6532 420.701 78.1328 420.084 77.4701C418.843 76.0962 418.184 74.2945 418.245 72.4443V29.8414C418.178 28.0067 418.839 26.2198 420.084 24.8708C420.71 24.2242 421.467 23.7182 422.304 23.3864C423.141 23.0546 424.039 22.9046 424.938 22.9463Z" fill="url(#paint5_linear_1922_5829)"/>
<path d="M402.677 37.1227C401.32 34.024 399.316 31.2511 396.8 28.9895C394.226 26.716 391.232 24.969 387.986 23.8472C384.501 22.6148 380.829 21.9928 377.132 22.0085C372.914 21.9569 368.722 22.667 364.757 24.1046C361.172 25.4071 357.9 27.4471 355.153 30.0927C352.447 32.7528 350.355 35.9721 349.024 39.5253C347.54 43.5008 346.81 47.7181 346.873 51.9611C346.857 55.7258 347.608 59.4544 349.079 62.9198C351.877 69.7139 357.204 75.1567 363.936 78.1014C369.529 80.4797 375.74 80.9934 381.649 79.5662C382.909 79.243 384.027 78.5101 384.825 77.4828C385.624 76.4555 386.059 75.192 386.062 73.8907V73.5169C386.052 72.6675 385.858 71.8304 385.495 71.0627C385.131 70.295 384.606 69.6149 383.956 69.0689C383.305 68.523 382.544 68.1241 381.725 67.8995C380.906 67.675 380.047 67.63 379.209 67.7678C378.295 67.8929 377.374 67.9544 376.451 67.9517C371.63 67.9517 367.711 66.4644 364.696 63.4898C361.68 60.5152 360.173 56.4291 360.173 51.2317C360.151 48.9707 360.495 46.7211 361.19 44.5695C361.834 42.5964 362.894 40.7844 364.297 39.2556C365.769 37.6989 367.564 36.4835 369.556 35.6946C371.9 34.7863 374.398 34.3449 376.911 34.3953C381.745 34.3748 385.387 35.664 387.839 38.2627C390.291 40.8614 391.535 44.4591 391.572 49.0559V51.3175C391.572 52.1878 391.523 53.0153 391.449 53.8182C391.44 53.9917 391.44 54.1656 391.449 54.3391L391.596 73.1307C391.675 74.8583 392.402 76.4928 393.631 77.7091C394.929 78.8753 396.623 79.5014 398.368 79.4593C400.112 79.4171 401.774 78.7099 403.015 77.4824C404.252 76.1065 404.911 74.3061 404.853 72.4565V47.9404C404.903 44.2211 404.161 40.5337 402.677 37.1227Z" fill="url(#paint6_linear_1922_5829)"/>
<path d="M306.182 43.0677V7.01063C306.239 5.15928 305.581 3.35714 304.343 1.9787C303.041 0.713536 301.296 0.00585938 299.48 0.00585938C297.664 0.00585938 295.919 0.713536 294.617 1.9787C293.402 3.36649 292.765 5.16759 292.839 7.01063V72.4503C292.772 74.2959 293.42 76.0962 294.647 77.4761C295.948 78.7456 297.693 79.4562 299.511 79.4562C301.328 79.4562 303.073 78.7456 304.374 77.4761C305.611 76.1002 306.27 74.2999 306.213 72.4503V55.289L306.182 43.0677Z" fill="url(#paint7_linear_1922_5829)"/>
<path d="M338.372 70.6422L333.058 57.4157C331.444 53.5054 329.197 50.7453 326.316 49.1354C326.149 49.0432 326.009 48.9091 325.91 48.7464C325.811 48.5836 325.756 48.3978 325.75 48.2073C325.744 48.0167 325.789 47.828 325.878 47.6598C325.968 47.4915 326.1 47.3495 326.261 47.2477C328.712 45.6133 330.755 43.0125 332.39 39.4454L336.006 31.6493C336.351 30.8083 336.507 29.9015 336.461 28.9935C336.415 28.0856 336.17 27.1989 335.742 26.3967C335.276 25.6022 334.657 24.9082 333.92 24.3548C333.184 23.8014 332.345 23.3997 331.452 23.1728C327.775 22.1922 325.025 23.8123 323.202 28.0332L319.041 36.5096C317.913 38.8468 316.765 40.5241 315.596 41.5415C315.474 41.6457 315.351 41.7377 315.216 41.8357C314.125 42.5649 313.225 43.547 312.595 44.6984C311.964 45.8498 311.621 47.1364 311.594 48.449V49.2457C311.626 50.7027 312.069 52.121 312.871 53.3375C313.673 54.5541 314.803 55.5194 316.129 56.1225C316.602 56.351 317.038 56.6484 317.423 57.0051C318.649 58.1696 319.776 60.0022 320.757 62.4844L325.617 74.1296C326.191 75.8734 327.322 77.3807 328.835 78.4199C329.546 78.8997 330.353 79.2189 331.199 79.3555C332.046 79.492 332.912 79.4426 333.738 79.2106C335.847 78.6835 337.313 77.6293 338.139 76.048C338.552 75.2129 338.786 74.3006 338.827 73.3697C338.867 72.4388 338.712 71.5097 338.372 70.6422Z" fill="url(#paint8_linear_1922_5829)"/>
<path d="M280.851 36.6814C279.555 33.6973 277.656 31.0135 275.274 28.7985C272.891 26.5835 270.076 24.8852 267.005 23.8105C263.693 22.62 260.197 22.0225 256.678 22.0453C252.702 21.9952 248.756 22.7456 245.076 24.2518C241.683 25.6411 238.622 27.7294 236.09 30.3808C233.575 33.0705 231.6 36.2187 230.274 39.654C228.844 43.3678 228.132 47.3197 228.178 51.2992C228.123 55.3792 228.873 59.4299 230.384 63.2202C231.782 66.69 233.9 69.8236 236.599 72.4137C239.325 75.0059 242.557 77.0069 246.093 78.2915C249.913 79.6757 253.951 80.3648 258.014 80.3263C264.96 80.3263 270.836 78.9309 275.641 76.1402C279.408 73.9582 280.313 71.1348 278.356 67.6698C277.073 65.4838 275.416 64.3908 273.386 64.3908C272.096 64.445 270.829 64.7532 269.659 65.2979C267.59 66.2083 265.455 66.9622 263.273 67.5534C261.449 68.0557 259.568 68.3214 257.677 68.344C253.591 68.344 250.238 67.3082 247.619 65.2366C244.934 63.0887 243.06 60.0906 242.305 56.7356C241.972 54.9585 241.792 53.1561 241.766 51.3482C241.746 49.5005 241.889 47.6545 242.195 45.8321C242.679 43.8218 243.948 39.8563 247.276 36.9695C248.077 36.2751 248.955 35.6747 249.893 35.1798C251.749 34.2862 253.768 33.7833 255.826 33.7021C257.884 33.6209 259.937 33.9632 261.857 34.7079C263.445 35.3434 264.916 36.2404 266.208 37.3618C267.423 38.4227 268.42 39.709 269.144 41.1495C269.853 42.5516 270.221 44.1015 270.217 45.6727H252.443C250.974 45.6727 249.565 46.2562 248.527 47.2947C247.488 48.3332 246.905 49.7417 246.905 51.2103C246.905 52.679 247.488 54.0875 248.527 55.126C249.565 56.1645 250.974 56.7479 252.443 56.7479H273.839C276.63 56.7479 278.834 55.8428 280.452 54.0327C282.128 52.0927 283.004 49.5887 282.904 47.0273C282.956 43.4725 282.256 39.9468 280.851 36.6814Z" fill="url(#paint9_linear_1922_5829)"/>
<path d="M136.414 56.3923C139.311 56.3923 141.66 54.0434 141.66 51.1459C141.66 48.2483 139.311 45.8994 136.414 45.8994C133.516 45.8994 131.167 48.2483 131.167 51.1459C131.167 54.0434 133.516 56.3923 136.414 56.3923Z" fill="url(#paint10_linear_1922_5829)"/>
<path d="M417.032 7.91164C417.002 6.86994 417.182 5.83292 417.561 4.86217C417.94 3.89142 418.51 3.00674 419.238 2.26067C419.98 1.51077 420.87 0.923104 421.851 0.534864C422.833 0.146625 423.884 -0.033737 424.938 0.0051908C425.976 -0.0266633 427.009 0.157359 427.973 0.545607C428.936 0.933854 429.808 1.51787 430.534 2.26067C431.261 3.00674 431.832 3.89142 432.211 4.86217C432.59 5.83292 432.77 6.86994 432.74 7.91164C432.771 8.95352 432.592 9.99094 432.213 10.9619C431.834 11.9328 431.263 12.8174 430.534 13.5626C429.809 14.3074 428.937 14.8932 427.974 15.2826C427.011 15.6719 425.977 15.8564 424.938 15.8242C423.883 15.8642 422.831 15.6838 421.85 15.2944C420.868 14.905 419.979 14.3151 419.238 13.5626C418.509 12.8176 417.938 11.9331 417.559 10.9621C417.18 9.99108 417 8.95356 417.032 7.91164Z" fill="url(#paint11_linear_1922_5829)"/>
</g>
<defs>
<linearGradient id="paint0_linear_1922_5829" x1="40.994" y1="6.74219" x2="40.994" y2="95.0003" gradientUnits="userSpaceOnUse">
<stop stop-color="white" stop-opacity="0.8"/>
<stop offset="0.723958" stop-color="white"/>
</linearGradient>
<linearGradient id="paint1_linear_1922_5829" x1="41.1348" y1="25.4316" x2="41.1348" y2="76.2404" gradientUnits="userSpaceOnUse">
<stop stop-color="white" stop-opacity="0.8"/>
<stop offset="0.723958" stop-color="white"/>
</linearGradient>
<linearGradient id="paint2_linear_1922_5829" x1="40.994" y1="40.9229" x2="40.994" y2="60.6779" gradientUnits="userSpaceOnUse">
<stop stop-color="white" stop-opacity="0.8"/>
<stop offset="0.723958" stop-color="white"/>
</linearGradient>
<linearGradient id="paint3_linear_1922_5829" x1="136.429" y1="22.0371" x2="136.429" y2="80.3399" gradientUnits="userSpaceOnUse">
<stop stop-color="white" stop-opacity="0.8"/>
<stop offset="0.723958" stop-color="white"/>
</linearGradient>
<linearGradient id="paint4_linear_1922_5829" x1="197.083" y1="22.0625" x2="197.083" y2="80.3888" gradientUnits="userSpaceOnUse">
<stop stop-color="white" stop-opacity="0.8"/>
<stop offset="0.723958" stop-color="white"/>
</linearGradient>
<linearGradient id="paint5_linear_1922_5829" x1="424.886" y1="22.9395" x2="424.886" y2="79.4566" gradientUnits="userSpaceOnUse">
<stop stop-color="white" stop-opacity="0.8"/>
<stop offset="0.723958" stop-color="white"/>
</linearGradient>
<linearGradient id="paint6_linear_1922_5829" x1="375.863" y1="22.0059" x2="375.863" y2="80.3571" gradientUnits="userSpaceOnUse">
<stop stop-color="white" stop-opacity="0.8"/>
<stop offset="0.723958" stop-color="white"/>
</linearGradient>
<linearGradient id="paint7_linear_1922_5829" x1="299.525" y1="0.00585937" x2="299.525" y2="79.4562" gradientUnits="userSpaceOnUse">
<stop stop-color="white" stop-opacity="0.8"/>
<stop offset="0.723958" stop-color="white"/>
</linearGradient>
<linearGradient id="paint8_linear_1922_5829" x1="325.213" y1="22.8955" x2="325.213" y2="79.4308" gradientUnits="userSpaceOnUse">
<stop stop-color="white" stop-opacity="0.8"/>
<stop offset="0.723958" stop-color="white"/>
</linearGradient>
<linearGradient id="paint9_linear_1922_5829" x1="255.543" y1="22.043" x2="255.543" y2="80.3278" gradientUnits="userSpaceOnUse">
<stop stop-color="white" stop-opacity="0.8"/>
<stop offset="0.723958" stop-color="white"/>
</linearGradient>
<linearGradient id="paint10_linear_1922_5829" x1="136.414" y1="45.8994" x2="136.414" y2="56.3923" gradientUnits="userSpaceOnUse">
<stop stop-color="white" stop-opacity="0.8"/>
<stop offset="0.723958" stop-color="white"/>
</linearGradient>
<linearGradient id="paint11_linear_1922_5829" x1="424.886" y1="0" x2="424.886" y2="15.8297" gradientUnits="userSpaceOnUse">
<stop stop-color="white" stop-opacity="0.8"/>
<stop offset="0.723958" stop-color="white"/>
</linearGradient>
<clipPath id="clip0_1922_5829">
<rect width="82.129" height="88.2581" fill="white" transform="translate(0 6.74219)"/>
</clipPath>
</defs>
</svg>
