<svg width="102" height="110" viewBox="0 0 102 110" fill="none" xmlns="http://www.w3.org/2000/svg">
<path d="M80.6287 27.4082L60.1681 15.6109C54.5328 12.3699 47.5536 12.3699 41.9183 15.6109L21.4576 27.4082C15.8223 30.6492 12.311 36.6558 12.311 43.1811V66.7324C12.311 73.2577 15.7789 79.2644 21.4576 82.5054L41.9183 94.3027C47.5536 97.5437 54.5328 97.5437 60.1681 94.3027L80.6287 82.5054C86.2641 79.2644 89.7753 73.2577 89.7753 66.7324V43.1811C89.7753 36.6991 86.2641 30.6924 80.6287 27.4082Z" fill="white"/>
<path d="M89.9921 18.7223L63.0291 3.2086C55.5731 -1.06953 46.4266 -1.06953 38.9706 3.2086L12.0076 18.7223C4.59497 23.0004 0 30.9085 0 39.4648V70.492C0 79.0483 4.59497 86.9564 12.0076 91.2777L38.9706 106.791C46.4266 111.07 55.5731 111.07 63.0291 106.791L89.9921 91.2777C97.4481 86.9996 102 79.0915 102 70.492V39.4648C102.043 30.9085 97.4481 23.0004 89.9921 18.7223ZM95.8008 68.5907C95.8008 76.1098 91.7694 83.0672 85.2671 86.8267L61.5553 100.439C55.0096 104.199 46.9901 104.199 40.4444 100.439L16.776 86.8267C10.2303 83.0672 6.24223 76.1098 6.24223 68.5907V41.3661C6.24223 33.847 10.2737 26.8896 16.776 23.13L40.4444 9.51778C46.9901 5.7582 55.0096 5.7582 61.5553 9.51778L85.2237 23.13C91.7694 26.8896 95.7575 33.847 95.7575 41.3661V68.5907H95.8008Z" fill="white"/>
</svg>