<svg width="102" height="110" viewBox="0 0 102 110" fill="none" xmlns="http://www.w3.org/2000/svg">
<path d="M89.9921 18.7149L63.0291 3.20734C55.5731 -1.06911 46.4266 -1.06911 38.9706 3.20734L12.0076 18.7149C4.59497 23.0346 0 30.9395 0 39.4924V70.5076C0 79.0605 4.59497 86.9654 12.0076 91.2851L38.9706 106.793C46.4266 111.069 55.5731 111.069 63.0291 106.793L89.9921 91.2851C97.4481 87.0086 102 79.1037 102 70.5076V39.4924C102.043 30.9395 97.4481 23.0346 89.9921 18.7149ZM95.8008 68.6069C95.8008 76.1231 91.7694 83.0778 85.2671 86.8359L61.5553 100.443C55.0096 104.201 46.9901 104.201 40.4444 100.443L16.776 86.8359C10.2303 83.0778 6.24223 76.1231 6.24223 68.6069V41.3931C6.24223 33.8769 10.2737 26.9222 16.776 23.1641L40.4444 9.55724C46.9901 5.79914 55.0096 5.79914 61.5553 9.55724L85.2237 23.1641C91.7694 26.9222 95.7575 33.8769 95.7575 41.3931V68.6069H95.8008Z" fill="white"/>
<path d="M80.6286 27.4406L60.168 15.6479C54.5326 12.4082 47.5535 12.4082 41.9181 15.6479L21.4142 27.4406C15.7355 30.7235 12.2676 36.7279 12.2676 43.2073V66.7495C12.2676 73.2721 15.7355 79.2765 21.4142 82.5162L41.8748 94.3089C47.5101 97.5486 54.4893 97.5486 60.1246 94.3089L80.5853 82.5162C86.2206 79.2765 89.7319 73.2721 89.7319 66.7495V43.2073C89.7752 36.7279 86.264 30.7235 80.6286 27.4406ZM71.2653 73.1425C70.7451 74.6544 69.4013 75.6047 67.9274 75.6047C67.4939 75.6047 67.0171 75.5184 66.5836 75.3024L54.7927 70.2484C52.4086 69.2117 49.6776 69.2117 47.2934 70.2484L35.5459 75.3456C33.6819 76.1231 31.6011 75.1728 30.8642 73.1425C30.1273 71.1123 31.0376 68.8661 32.9016 68.0454L49.7643 60.7883C50.5879 60.4428 51.5849 60.4428 52.4086 60.7883L69.2712 68.0454C71.0919 68.8229 72.0022 71.1123 71.2653 73.1425ZM71.2653 60.054C70.7451 61.5659 69.4013 62.5162 67.9274 62.5162C67.4939 62.5162 67.0171 62.4298 66.5836 62.2138L54.7927 57.1598C52.4086 56.1231 49.6776 56.1231 47.2934 57.1598L35.5459 62.257C33.6819 63.0346 31.6011 62.0842 30.8642 60.054C30.1273 58.0238 31.0376 55.7775 32.9016 54.9568L49.7643 47.6998C50.5879 47.3542 51.5849 47.3542 52.4086 47.6998L69.2712 54.9568C71.0919 55.7775 72.0022 58.067 71.2653 60.054ZM71.2653 47.0086C70.7451 48.5205 69.4013 49.4708 67.9274 49.4708C67.4939 49.4708 67.0171 49.3844 66.5836 49.1685L54.7927 44.1145C52.4086 43.0777 49.6776 43.0777 47.2934 44.1145L35.5459 49.2117C33.6819 49.9892 31.6011 49.0389 30.8642 47.0086C30.1273 44.9784 31.0376 42.7322 32.9016 41.9114L49.7643 34.6544C50.5879 34.3089 51.5849 34.3089 52.4086 34.6544L69.2279 41.9114C71.0919 42.689 72.0022 44.9784 71.2653 47.0086Z" fill="white"/>
</svg>
