<svg width="102" height="112" viewBox="0 0 102 112" fill="none" xmlns="http://www.w3.org/2000/svg">
<path d="M90 19.7L63 4.19998C55.6 -0.100024 46.4 -0.100024 39 4.19998L12 19.7C4.6 24 0 31.9 0 40.5V71.5C0 80.1 4.6 88 12 92.3L39 107.8C46.4 112.1 55.6 112.1 63 107.8L90 92.3C97.4 88 102 80.1 102 71.5V40.5C102 31.9 97.4 24 90 19.7ZM95.7 69.6C95.7 77.1 91.7 84 85.2 87.8L61.5 101.4C55 105.2 46.9 105.2 40.4 101.4L16.8 87.8C10.3 84 6.3 77.1 6.3 69.6V42.4C6.3 34.9 10.3 28 16.8 24.2L40.5 10.6C47 6.79998 55 6.79998 61.5 10.6L85.2 24.2C91.7 28 95.7 34.9 95.7 42.4V69.6Z" fill="white"/>
<path d="M80.6 28.5L60.1 16.7C54.5 13.5 47.5 13.5 41.8 16.7L21.4 28.5C15.8 31.7 12.3 37.8 12.3 44.2V67.8C12.3 74.3 15.8 80.3 21.4 83.5L41.9 95.3C47.5 98.5 54.5 98.5 60.2 95.3L80.7 83.5C86.3 80.3 89.8 74.2 89.8 67.8V44.2C89.8 37.7 86.2 31.7 80.6 28.5ZM25.4 70.4C24.2 70.4 23.3 69.3 23.5 68.1C24.6 62.5 29.5 58.2 35.5 58.2C31.9 58.2 29 55.3 29 51.7C29 48.1 31.9 45.2 35.5 45.2C39.1 45.2 42 48.1 42 51.7C42 55.3 39.1 58.2 35.5 58.2C36.4 58.2 37.3 58.3 38.1 58.5C35.9 60.8 34.4 63.8 33.7 67.1C33.5 68.3 33.8 69.4 34.5 70.4H25.4ZM64.2 70.4H37.8C36.2 70.4 35.1 69 35.4 67.4C36.8 60.1 43.3 54.5 51 54.5C46.3 54.5 42.5 50.7 42.5 46.1C42.5 41.4 46.3 37.7 51 37.7C55.7 37.7 59.5 41.5 59.5 46.1C59.5 50.8 55.7 54.5 51 54.5C58.8 54.5 65.2 60.1 66.6 67.4C66.9 69 65.8 70.4 64.2 70.4ZM76.6 70.4H67.5C68.2 69.5 68.5 68.3 68.2 67.1C67.6 63.8 66 60.8 63.8 58.5C64.6 58.3 65.5 58.2 66.4 58.2C62.8 58.2 59.9 55.3 59.9 51.7C59.9 48.1 62.8 45.2 66.4 45.2C70 45.2 72.9 48.1 72.9 51.7C72.9 55.3 70 58.2 66.4 58.2C72.4 58.2 77.3 62.5 78.4 68.1C78.8 69.3 77.9 70.4 76.6 70.4Z" fill="white"/>
</svg>
