<svg width="102" height="110" viewBox="0 0 102 110" fill="none" xmlns="http://www.w3.org/2000/svg">
    <path fill-rule="evenodd" clip-rule="evenodd"
        d="M63.0291 3.2086L89.9921 18.7223C97.4481 23.0004 102.043 30.9085 102 39.4648V70.492C102 79.0915 97.4481 86.9996 89.9921 91.2777L63.0291 106.791C55.5731 111.07 46.4266 111.07 38.9706 106.791L12.0076 91.2777C4.59497 86.9564 0 79.0483 0 70.492V39.4648C0 30.9085 4.59497 23.0004 12.0076 18.7223L38.9706 3.2086C46.4266 -1.06953 55.5731 -1.06953 63.0291 3.2086ZM85.2671 86.8267C91.7694 83.0672 95.8008 76.1098 95.8008 68.5907H95.7575V41.3661C95.7575 33.847 91.7694 26.8896 85.2237 23.13L61.5553 9.51778C55.0096 5.7582 46.9901 5.7582 40.4444 9.51778L16.776 23.13C10.2737 26.8896 6.24223 33.847 6.24223 41.3661V68.5907C6.24223 76.1098 10.2303 83.0672 16.776 86.8267L40.4444 100.439C46.9901 104.199 55.0096 104.199 61.5553 100.439L85.2671 86.8267ZM60.1681 15.6109L80.6287 27.4082C86.2641 30.6924 89.7753 36.6991 89.7753 43.1811V66.7325C89.7753 73.2577 86.2641 79.2644 80.6287 82.5054L60.1681 94.3027C54.5328 97.5437 47.5536 97.5437 41.9183 94.3027L21.4576 82.5054C15.7789 79.2644 12.311 73.2577 12.311 66.7325V43.1811C12.311 36.6559 15.8223 30.6492 21.4576 27.4082L41.9183 15.6109C47.5536 12.3699 54.5328 12.3699 60.1681 15.6109ZM65.7813 55.82C66.6859 55.2973 67.5379 54.6443 68.3115 53.8598C71.4134 50.7142 72.4702 46.2804 71.4836 42.2578C71.2962 41.4916 70.3507 41.2319 69.8001 41.7903L63.578 48.1003L57.8981 47.1405L56.9517 41.3804L63.1738 35.0704C63.7277 34.5086 63.4608 33.5515 62.7002 33.3597C58.7357 32.3634 54.3703 33.4369 51.2722 36.5783C50.3849 37.4781 49.6696 38.4862 49.1242 39.5616L49.6506 45.5263L56.0711 52.0374C59.106 51.4543 62.3633 52.3538 64.7124 54.7361L65.7813 55.82ZM38.1903 49.8468L30.1574 38.9848L35.5132 33.5543L46.2232 41.7006V46.9668L53.1708 54.0125C52.6026 54.3731 52.0604 54.7821 51.5751 55.2743C51.0889 55.7664 50.6865 56.3163 50.3308 56.8925L43.3832 49.8468H38.1903ZM63.2651 76.0738L53.4684 66.1388C51.0326 63.6686 51.0326 59.6642 53.4684 57.194C55.9042 54.7238 59.8528 54.7238 62.2886 57.194L72.0854 67.129C73.3037 68.3645 73.3037 70.3663 72.0854 71.6018L67.6757 76.0738C66.4573 77.3085 64.4826 77.3085 63.2651 76.0738ZM30.5683 67.177L43.0973 54.471L48.3848 59.8333C48.1094 61.3077 48.1694 62.8338 48.5649 64.2856L38.1409 74.8566C36.0499 76.9772 32.6593 76.9772 30.5683 74.8566C28.4772 72.736 28.4772 69.2976 30.5683 67.177ZM34.3555 73.0525C33.2468 73.0525 32.3473 72.1403 32.3473 71.016C32.3473 69.8908 33.2468 68.9794 34.3555 68.9794C35.4642 68.9794 36.3637 69.8908 36.3637 71.016C36.3637 72.1403 35.4642 73.0525 34.3555 73.0525Z"
        fill="#FFFFFF" />
</svg>