<!-- Generator: Adobe Illustrator 25.2.0, SVG Export Plug-In  -->
<svg version="1.1" xmlns="http://www.w3.org/2000/svg" xmlns:xlink="http://www.w3.org/1999/xlink" x="0px" y="0px" width="102px"
	 height="110px" viewBox="0 0 102 110" style="overflow:visible;enable-background:new 0 0 102 110;" xml:space="preserve">
<style type="text/css">
	.st0{fill:#FFFFFF;}
</style>
<defs>
</defs>
<path class="st0" d="M90,18.7L63,3.2c-7.4-4.3-16.6-4.3-24,0L12,18.7C4.6,23,0,30.9,0,39.5v31C0,79.1,4.6,87,12,91.3l27,15.5
	c7.4,4.3,16.6,4.3,24,0l27-15.5c7.4-4.3,12-12.2,12-20.8v-31C102,30.9,97.4,23,90,18.7z M95.7,68.6c0,7.5-4,14.4-10.5,18.2
	l-23.7,13.6c-6.5,3.8-14.6,3.8-21.1,0L16.8,86.8C10.3,83,6.3,76.1,6.3,68.6V41.4c0-7.5,4-14.4,10.5-18.2L40.5,9.6
	c6.5-3.8,14.5-3.8,21,0l23.7,13.6c6.5,3.8,10.5,10.7,10.5,18.2V68.6z M64.2,45.3c0,2-1.6,3.6-3.6,3.6s-3.6-1.6-3.6-3.6
	s1.6-3.6,3.6-3.6S64.2,43.3,64.2,45.3z M80.6,27.5L60.1,15.7c-5.6-3.2-12.6-3.2-18.3,0L21.4,27.5c-5.6,3.2-9.1,9.3-9.1,15.7v23.6
	c0,6.5,3.5,12.5,9.1,15.7l20.5,11.8c5.6,3.2,12.6,3.2,18.3,0l20.5-11.8c5.6-3.2,9.1-9.3,9.1-15.7V43.2
	C89.8,36.7,86.2,30.7,80.6,27.5z M57.1,62c-0.8,0-1.7-0.1-2.4-0.2l-1.8,2c-0.3,0.4-0.8,0.6-1.3,0.6h-2.8v3c0,1-0.8,1.8-1.8,1.8h-3v3
	c0,1-0.8,1.8-1.8,1.8h-8.3c-1,0-1.8-0.8-1.8-1.8v-5.8c0-0.5,0.2-0.9,0.5-1.3l12-12c-0.4-1.3-0.7-2.7-0.7-4.1
	c0-7.2,5.9-13.1,13.1-13.1c7.3,0,13.1,5.8,13.1,13.1C70.2,56.1,64.3,62,57.1,62z"/>
</svg>
