<svg id="Layer_1" data-name="Layer 1" xmlns="http://www.w3.org/2000/svg" xmlns:xlink="http://www.w3.org/1999/xlink" viewBox="0 0 500 500"><defs><style>.cls-1{fill:none;}.cls-2{clip-path:url(#clip-path);}.cls-3{fill:#fff;}</style><clipPath id="clip-path"><rect class="cls-1" width="500" height="500"/></clipPath></defs><g class="cls-2"><g class="cls-2"><path class="cls-3" d="M250,100A150,150,0,1,0,400,250,150,150,0,0,0,250,100M150,250a100.19,100.19,0,0,1,75-96.84V346.84A100.19,100.19,0,0,1,150,250m125,96.84V153.16a100,100,0,0,1,0,193.68"/><path class="cls-3" d="M250,55c107.69,0,195,87.31,195,195S357.69,445,250,445,55,357.7,55,250,142.3,55,250,55m0-40a235.06,235.06,0,0,0-91.49,451.52,235.05,235.05,0,0,0,183-433A233.59,233.59,0,0,0,250,15"/></g></g></svg>