<svg width="102" height="110" viewBox="0 0 102 110" fill="none" xmlns="http://www.w3.org/2000/svg">
<path fill-rule="evenodd" clip-rule="evenodd" d="M63.0293 3.20947L89.9922 18.7231C97.4473 23.0005 102.043 30.9087 102 39.4653V70.4927C102 79.0923 97.4473 87.0005 89.9922 91.2778L63.0293 106.792C55.5723 111.071 46.4258 111.071 38.9707 106.792L12.0078 91.2778C4.5957 86.9575 0 79.0493 0 70.4927V39.4653C0 30.9087 4.5957 23.0005 12.0078 18.7231L38.9707 3.20947C46.4258 -1.06982 55.5723 -1.06982 63.0293 3.20947ZM85.2676 86.8267C91.7695 83.0669 95.8008 76.1099 95.8008 68.5903H95.7578V41.3657C95.7578 33.8481 91.7695 26.8892 85.2246 23.1313L61.5547 9.51807C55.0098 5.7583 46.9902 5.7583 40.4453 9.51807L16.7754 23.1313C10.2734 26.8892 6.24219 33.8481 6.24219 41.3657V68.5903C6.24219 76.1099 10.2305 83.0669 16.7754 86.8267L40.4453 100.44C46.9902 104.2 55.0098 104.2 61.5547 100.44L85.2676 86.8267ZM80.6289 27.4087L60.168 15.6118C54.5332 12.3696 47.5527 12.3696 41.918 15.6118L21.457 27.4087C15.8223 30.6489 12.3105 36.6567 12.3105 43.1821V66.7329C12.3105 73.2583 15.7793 79.2642 21.457 82.5063L41.918 94.3032C47.5527 97.5435 54.5332 97.5435 60.168 94.3032L80.6289 82.5063C86.2637 79.2642 89.7754 73.2583 89.7754 66.7329V43.1821C89.7754 36.6997 86.2637 30.6938 80.6289 27.4087ZM52.2344 32.3374L70.2344 39.6819C71.9031 40.3612 73 41.9678 73 43.7489C73 64.0655 60.2594 75.3851 52.225 78.6626C51.1187 79.1125 49.8719 79.1125 48.7656 78.6626C38.7344 74.5681 28 61.9723 28 43.7489C28 41.9678 29.0969 40.3612 30.775 39.6819L48.775 32.3374C49.3233 32.1147 49.9111 32 50.5047 32C51.0983 32 51.6861 32.1147 52.2344 32.3374ZM50.5 37.9926L50.5094 72.9706C59.2938 68.6925 66.6813 58.6214 66.9906 44.722L50.5 37.9926Z" fill="white"/>
</svg>
