<svg width="5066" height="2850" viewBox="0 0 5066 2850" fill="none" xmlns="http://www.w3.org/2000/svg">
<g clip-path="url(#clip0_3030_7074)">
<g opacity="0.25" filter="url(#filter0_f_3030_7074)">
<path d="M1450 1035.4C1477.35 1026.36 1502.17 1012.16 1529.35 1002.57C1586.48 982.402 1648.62 968.206 1709.86 964.633C1777.95 960.661 1849.37 976.072 1914.86 991.26C1984.73 1007.46 2046.43 1034.11 2106.48 1069.92C2150.41 1096.13 2194.42 1125.36 2230.65 1160.14C2272.9 1200.69 2306.64 1247.76 2348.94 1288.29C2384.21 1322.08 2419.19 1354.81 2449.03 1392.85C2473.02 1423.42 2491.73 1450.5 2531.19 1466.17C2582.18 1486.41 2641.69 1493.33 2695.78 1503.74C2788.51 1521.58 2882.33 1532.38 2975.58 1547.51C3065.13 1562.03 3152.22 1585.04 3234.24 1621.19C3314.38 1656.5 3393.01 1697.71 3468.01 1741.31C3536.05 1780.87 3602.98 1822.12 3664.58 1869.7C3722.58 1914.51 3777.45 1967.78 3843.75 2002.72C3891.19 2027.72 3941.63 2032.53 3994.82 2021.2C4052.44 2008.92 4093.67 1981.57 4138 1948" stroke="white" stroke-width="267" stroke-linecap="round"/>
<path d="M1450 1035.4C1477.35 1026.36 1502.17 1012.16 1529.35 1002.57C1586.48 982.402 1648.62 968.206 1709.86 964.633C1777.95 960.661 1849.37 976.072 1914.86 991.26C1984.73 1007.46 2046.43 1034.11 2106.48 1069.92C2150.41 1096.13 2194.42 1125.36 2230.65 1160.14C2272.9 1200.69 2306.64 1247.76 2348.94 1288.29C2384.21 1322.08 2419.19 1354.81 2449.03 1392.85C2473.02 1423.42 2491.73 1450.5 2531.19 1466.17C2582.18 1486.41 2641.69 1493.33 2695.78 1503.74C2788.51 1521.58 2882.33 1532.38 2975.58 1547.51C3065.13 1562.03 3152.22 1585.04 3234.24 1621.19C3314.38 1656.5 3393.01 1697.71 3468.01 1741.31C3536.05 1780.87 3602.98 1822.12 3664.58 1869.7C3722.58 1914.51 3777.45 1967.78 3843.75 2002.72C3891.19 2027.72 3941.63 2032.53 3994.82 2021.2C4052.44 2008.92 4093.67 1981.57 4138 1948" stroke="url(#paint0_linear_3030_7074)" stroke-width="267" stroke-linecap="round"/>
</g>
<g opacity="0.25" filter="url(#filter1_f_3030_7074)">
<path d="M1433 2054.23C1482.98 2071.57 1533.96 2075.75 1586.63 2065.42C1654.68 2052.07 1737.26 2022.34 1772.92 1964.09C1801.81 1916.9 1804.54 1858.08 1814.94 1805.84C1826.22 1749.19 1844.11 1693.34 1863.12 1638.47C1903.53 1521.78 1977.32 1397.76 2098.11 1335.59C2126.88 1320.78 2153.48 1320.69 2184.56 1332.18C2221.29 1345.77 2256.66 1362 2296.04 1368.67C2343.11 1376.65 2389.52 1376.98 2436.02 1366C2464.64 1359.24 2493.65 1350.46 2520.07 1338.26C2544.23 1327.1 2564.36 1309.7 2584.97 1293.99C2634.36 1256.32 2680.84 1214.94 2728.03 1175.03C2766.83 1142.21 2807.29 1111.92 2853.43 1087.81C2906.13 1060.27 2963.04 1046.62 3022.05 1035.38C3107.47 1019.12 3196.77 1010.56 3284.08 1013.61C3384.04 1017.11 3478.8 1037.27 3574.48 1061.9C3632.89 1076.94 3706.04 1095.9 3766.65 1080.88C3792.88 1074.37 3809.63 1057.27 3825 1038.3" stroke="url(#paint1_linear_3030_7074)" stroke-width="267" stroke-linecap="round"/>
</g>
<g opacity="0.25" filter="url(#filter2_f_3030_7074)">
<path d="M1777.63 2139C1761.52 2100.61 1783.15 2061.1 1802.79 2027.05C1848.78 1947.34 1928.51 1877.75 2014.78 1834.23C2108.32 1787.04 2219.05 1746.17 2326.34 1735.63C2435.43 1724.92 2556.71 1731.26 2658.37 1770.85C2755.05 1808.5 2833.06 1884.11 2906.09 1950.92C2938.31 1980.4 2971.59 2009.3 3009.54 2032.76C3065.24 2067.18 3128.37 2085.37 3193.82 2097.96C3338.86 2125.85 3490.56 2140.84 3635.73 2106.94C3690.28 2094.2 3745.39 2078 3790.7 2046.6C3828.31 2020.53 3850.26 1986.48 3871 1948.85" stroke="url(#paint2_linear_3030_7074)" stroke-width="267" stroke-linecap="round"/>
</g>
<g filter="url(#filter3_f_3030_7074)">
<circle cx="1611" cy="1542" r="203" fill="#4B262F"/>
</g>
<g filter="url(#filter4_f_3030_7074)">
<circle cx="3317" cy="1451" r="203" fill="#4B262F"/>
</g>
</g>
<defs>
<filter id="filter0_f_3030_7074" x="730.463" y="244.516" width="4127.04" height="2501.97" filterUnits="userSpaceOnUse" color-interpolation-filters="sRGB">
<feFlood flood-opacity="0" result="BackgroundImageFix"/>
<feBlend mode="normal" in="SourceGraphic" in2="BackgroundImageFix" result="shape"/>
<feGaussianBlur stdDeviation="293" result="effect1_foregroundBlur_3030_7074"/>
</filter>
<filter id="filter1_f_3030_7074" x="713.463" y="293.5" width="3831.04" height="2497" filterUnits="userSpaceOnUse" color-interpolation-filters="sRGB">
<feFlood flood-opacity="0" result="BackgroundImageFix"/>
<feBlend mode="normal" in="SourceGraphic" in2="BackgroundImageFix" result="shape"/>
<feGaussianBlur stdDeviation="293" result="effect1_foregroundBlur_3030_7074"/>
</filter>
<filter id="filter2_f_3030_7074" x="1052.5" y="1011.5" width="3538.03" height="1847.03" filterUnits="userSpaceOnUse" color-interpolation-filters="sRGB">
<feFlood flood-opacity="0" result="BackgroundImageFix"/>
<feBlend mode="normal" in="SourceGraphic" in2="BackgroundImageFix" result="shape"/>
<feGaussianBlur stdDeviation="293" result="effect1_foregroundBlur_3030_7074"/>
</filter>
<filter id="filter3_f_3030_7074" x="908" y="839" width="1406" height="1406" filterUnits="userSpaceOnUse" color-interpolation-filters="sRGB">
<feFlood flood-opacity="0" result="BackgroundImageFix"/>
<feBlend mode="normal" in="SourceGraphic" in2="BackgroundImageFix" result="shape"/>
<feGaussianBlur stdDeviation="250" result="effect1_foregroundBlur_3030_7074"/>
</filter>
<filter id="filter4_f_3030_7074" x="2614" y="748" width="1406" height="1406" filterUnits="userSpaceOnUse" color-interpolation-filters="sRGB">
<feFlood flood-opacity="0" result="BackgroundImageFix"/>
<feBlend mode="normal" in="SourceGraphic" in2="BackgroundImageFix" result="shape"/>
<feGaussianBlur stdDeviation="250" result="effect1_foregroundBlur_3030_7074"/>
</filter>
<linearGradient id="paint0_linear_3030_7074" x1="1726.85" y1="884.73" x2="3688.69" y2="1962.12" gradientUnits="userSpaceOnUse">
<stop stop-color="#FFCA8B"/>
<stop offset="1" stop-color="#353D55"/>
</linearGradient>
<linearGradient id="paint1_linear_3030_7074" x1="3497.48" y1="950.009" x2="1557.35" y2="2223.56" gradientUnits="userSpaceOnUse">
<stop stop-color="#FF8B8B"/>
<stop offset="1" stop-color="#353D55"/>
</linearGradient>
<linearGradient id="paint2_linear_3030_7074" x1="1902.54" y1="1902.42" x2="3688.4" y2="2037.83" gradientUnits="userSpaceOnUse">
<stop stop-color="#D82424"/>
<stop offset="1" stop-color="#8C5959"/>
</linearGradient>
<clipPath id="clip0_3030_7074">
<rect width="5066" height="2850" fill="white"/>
</clipPath>
</defs>
</svg>
